<svg xmlns="http://www.w3.org/2000/svg" xmlns:xlink="http://www.w3.org/1999/xlink" viewBox="0 0 1366 768"><defs><style>.\36 809d9f7-e042-4a89-8936-ff39373daf55{fill:url(#e4c14f8b-6a34-4622-85e5-7d51616936ff);}.\32 1727bde-3251-4e78-9202-1f433c62fd08{fill:#fff;}.b399f3d6-3175-4115-928f-714713750b6c{fill:#010101;}.\38 10f2c23-0875-4b6b-99e8-54039443411b{fill:url(#92271668-5947-4b98-a3f3-9affa7cb6b5f);}.e09edecb-6324-40c9-96ca-ea4aba9ab282{fill:url(#0f4d56d2-e652-4493-bbc5-f67e9eeb3ebe);}</style><linearGradient id="e4c14f8b-6a34-4622-85e5-7d51616936ff" x1="-4752" y1="654" x2="-4752" y2="-320" gradientTransform="translate(5437 310)" gradientUnits="userSpaceOnUse"><stop offset="0" stop-color="#060d26"/><stop offset="0.06401" stop-color="#061636"/><stop offset="0.07946" stop-color="#06193b"/><stop offset="0.27071" stop-color="#19294d"/><stop offset="0.3442" stop-color="#1d2c52"/><stop offset="0.43372" stop-color="#273461"/><stop offset="0.50419" stop-color="#333e72"/><stop offset="0.99438" stop-color="#675384"/></linearGradient><linearGradient id="92271668-5947-4b98-a3f3-9affa7cb6b5f" x1="-4917.5" y1="20" x2="-4917.5" y2="-138" gradientTransform="translate(5602 756)" gradientUnits="userSpaceOnUse"><stop offset="0"/><stop offset="0.29897" stop-color="#0a090d"/><stop offset="0.335" stop-color="#0a090c" stop-opacity="0.7488"/><stop offset="0.47529" stop-color="#0a0a0a" stop-opacity="0.24052"/><stop offset="0.86517" stop-color="#0a0a0a" stop-opacity="0.1"/><stop offset="0.99438" stop-color="#0a0a0a" stop-opacity="0"/></linearGradient><linearGradient id="0f4d56d2-e652-4493-bbc5-f67e9eeb3ebe" x1="-4754" y1="647" x2="-4754" y2="147" gradientTransform="translate(5441 -150)" gradientUnits="userSpaceOnUse"><stop offset="0"/><stop offset="0.07946" stop-color="#0a090d"/><stop offset="0.26583" stop-color="#0a0a0a"/><stop offset="0.69883" stop-color="#0a0a0a" stop-opacity="0.48224"/><stop offset="0.86517" stop-color="#0a0a0a" stop-opacity="0.1"/><stop offset="0.99438" stop-color="#0a0a0a" stop-opacity="0"/></linearGradient></defs><title>01Zeichenfläche 6</title><g id="a6302faf-0782-42af-9dc9-ce97c92b9ff5" data-name="Ebene 1"><rect class="6809d9f7-e042-4a89-8936-ff39373daf55" x="-1" y="-10" width="1372" height="974" transform="translate(1370 954) rotate(-180)"/><path class="21727bde-3251-4e78-9202-1f433c62fd08" d="M58,33.5c3.21726,0,3.22259-5,0-5-3.21726,0-3.22259,5,0,5Z"/><path class="21727bde-3251-4e78-9202-1f433c62fd08" d="M642,55.5c3.21726,0,3.22259-5,0-5-3.21726,0-3.22259,5,0,5Z"/><path class="21727bde-3251-4e78-9202-1f433c62fd08" d="M797,78.5c3.21726,0,3.22259-5,0-5-3.21726,0-3.22259,5,0,5Z"/><path class="21727bde-3251-4e78-9202-1f433c62fd08" d="M292,24.5c3.21726,0,3.22259-5,0-5-3.21726,0-3.22259,5,0,5Z"/><path class="21727bde-3251-4e78-9202-1f433c62fd08" d="M526,45.25a1.25075,1.25075,0,0,0,0-2.5,1.25075,1.25075,0,0,0,0,2.5Z"/><path class="21727bde-3251-4e78-9202-1f433c62fd08" d="M743,79.25a1.25075,1.25075,0,0,0,0-2.5,1.25075,1.25075,0,0,0,0,2.5Z"/><path class="21727bde-3251-4e78-9202-1f433c62fd08" d="M165,138.25a1.25075,1.25075,0,0,0,0-2.5,1.25075,1.25075,0,0,0,0,2.5Z"/><path class="21727bde-3251-4e78-9202-1f433c62fd08" d="M164,49.25a1.25075,1.25075,0,0,0,0-2.5,1.25075,1.25075,0,0,0,0,2.5Z"/><path class="21727bde-3251-4e78-9202-1f433c62fd08" d="M21,100.25a1.25075,1.25075,0,0,0,0-2.5,1.25075,1.25075,0,0,0,0,2.5Z"/><path class="21727bde-3251-4e78-9202-1f433c62fd08" d="M371,81.25a1.25075,1.25075,0,0,0,0-2.5,1.25075,1.25075,0,0,0,0,2.5Z"/><path class="21727bde-3251-4e78-9202-1f433c62fd08" d="M546,189.25a1.25075,1.25075,0,0,0,0-2.5,1.25075,1.25075,0,0,0,0,2.5Z"/><path class="21727bde-3251-4e78-9202-1f433c62fd08" d="M199,228.25a1.25075,1.25075,0,0,0,0-2.5,1.25075,1.25075,0,0,0,0,2.5Z"/><path class="21727bde-3251-4e78-9202-1f433c62fd08" d="M253,106c6.43452,0,6.44518-10,0-10-6.43452,0-6.44518,10,0,10Z"/><path class="21727bde-3251-4e78-9202-1f433c62fd08" d="M371,207c6.43452,0,6.44518-10,0-10-6.43452,0-6.44518,10,0,10Z"/><path class="21727bde-3251-4e78-9202-1f433c62fd08" d="M579,56c6.43452,0,6.44518-10,0-10-6.43452,0-6.44518,10,0,10Z"/><path class="21727bde-3251-4e78-9202-1f433c62fd08" d="M692,187c6.43452,0,6.44518-10,0-10-6.43452,0-6.44518,10,0,10Z"/><path class="21727bde-3251-4e78-9202-1f433c62fd08" d="M75,225c6.43452,0,6.44518-10,0-10-6.43452,0-6.44518,10,0,10Z"/><path class="21727bde-3251-4e78-9202-1f433c62fd08" d="M104,87.375a.37522.37522,0,0,0,0-.75.37522.37522,0,0,0,0,.75Z"/><path class="21727bde-3251-4e78-9202-1f433c62fd08" d="M164,181.375a.37522.37522,0,0,0,0-.75.37522.37522,0,0,0,0,.75Z"/><path class="21727bde-3251-4e78-9202-1f433c62fd08" d="M260,202.375a.37522.37522,0,0,0,0-.75.37522.37522,0,0,0,0,.75Z"/><path class="21727bde-3251-4e78-9202-1f433c62fd08" d="M310.66667,82.70833a.37522.37522,0,0,0,0-.75.37522.37522,0,0,0,0,.75Z"/><path class="21727bde-3251-4e78-9202-1f433c62fd08" d="M707.33333,36.70833a.37522.37522,0,0,0,0-.75.37522.37522,0,0,0,0,.75Z"/><path class="21727bde-3251-4e78-9202-1f433c62fd08" d="M550,253.375a.37522.37522,0,0,0,0-.75.37522.37522,0,0,0,0,.75Z"/><path class="21727bde-3251-4e78-9202-1f433c62fd08" d="M110.66667,289.375a.37522.37522,0,0,0,0-.75.37522.37522,0,0,0,0,.75Z"/><path class="21727bde-3251-4e78-9202-1f433c62fd08" d="M638,324.5c3.21726,0,3.22259-5,0-5-3.21726,0-3.22259,5,0,5Z"/><path class="21727bde-3251-4e78-9202-1f433c62fd08" d="M793,347.5c3.21726,0,3.22259-5,0-5-3.21726,0-3.22259,5,0,5Z"/><path class="21727bde-3251-4e78-9202-1f433c62fd08" d="M566,237.5c3.21726,0,3.22259-5,0-5-3.21726,0-3.22259,5,0,5Z"/><path class="21727bde-3251-4e78-9202-1f433c62fd08" d="M522,314.25a1.25075,1.25075,0,0,0,0-2.5,1.25075,1.25075,0,0,0,0,2.5Z"/><path class="21727bde-3251-4e78-9202-1f433c62fd08" d="M625,259.25a1.25075,1.25075,0,0,0,0-2.5,1.25075,1.25075,0,0,0,0,2.5Z"/><path class="21727bde-3251-4e78-9202-1f433c62fd08" d="M739,348.25a1.25075,1.25075,0,0,0,0-2.5,1.25075,1.25075,0,0,0,0,2.5Z"/><path class="21727bde-3251-4e78-9202-1f433c62fd08" d="M367,350.25a1.25075,1.25075,0,0,0,0-2.5,1.25075,1.25075,0,0,0,0,2.5Z"/><path class="21727bde-3251-4e78-9202-1f433c62fd08" d="M542,458.25a1.25075,1.25075,0,0,0,0-2.5,1.25075,1.25075,0,0,0,0,2.5Z"/><path class="21727bde-3251-4e78-9202-1f433c62fd08" d="M575,325c6.43452,0,6.44518-10,0-10-6.43452,0-6.44518,10,0,10Z"/><path class="21727bde-3251-4e78-9202-1f433c62fd08" d="M688,456c6.43452,0,6.44518-10,0-10-6.43452,0-6.44518,10,0,10Z"/><path class="21727bde-3251-4e78-9202-1f433c62fd08" d="M306.66667,351.70833a.37522.37522,0,0,0,0-.75.37522.37522,0,0,0,0,.75Z"/><path class="21727bde-3251-4e78-9202-1f433c62fd08" d="M452.66667,244.375a.37522.37522,0,0,0,0-.75.37522.37522,0,0,0,0,.75Z"/><path class="21727bde-3251-4e78-9202-1f433c62fd08" d="M703.33333,305.70833a.37522.37522,0,0,0,0-.75.37522.37522,0,0,0,0,.75Z"/><path class="21727bde-3251-4e78-9202-1f433c62fd08" d="M672.66667,395.70833a.37522.37522,0,0,0,0-.75.37522.37522,0,0,0,0,.75Z"/><path class="21727bde-3251-4e78-9202-1f433c62fd08" d="M546,522.375a.37522.37522,0,0,0,0-.75.37522.37522,0,0,0,0,.75Z"/><path class="21727bde-3251-4e78-9202-1f433c62fd08" d="M53,508.5c3.21726,0,3.22259-5,0-5-3.21726,0-3.22259,5,0,5Z"/><path class="21727bde-3251-4e78-9202-1f433c62fd08" d="M637,530.5c3.21726,0,3.22259-5,0-5-3.21726,0-3.22259,5,0,5Z"/><path class="21727bde-3251-4e78-9202-1f433c62fd08" d="M792,553.5c3.21726,0,3.22259-5,0-5-3.21726,0-3.22259,5,0,5Z"/><path class="21727bde-3251-4e78-9202-1f433c62fd08" d="M287,499.5c3.21726,0,3.22259-5,0-5-3.21726,0-3.22259,5,0,5Z"/><path class="21727bde-3251-4e78-9202-1f433c62fd08" d="M565,443.5c3.21726,0,3.22259-5,0-5-3.21726,0-3.22259,5,0,5Z"/><path class="21727bde-3251-4e78-9202-1f433c62fd08" d="M738,554.25a1.25075,1.25075,0,0,0,0-2.5,1.25075,1.25075,0,0,0,0,2.5Z"/><path class="21727bde-3251-4e78-9202-1f433c62fd08" d="M160,613.25a1.25075,1.25075,0,0,0,0-2.5,1.25075,1.25075,0,0,0,0,2.5Z"/><path class="21727bde-3251-4e78-9202-1f433c62fd08" d="M159,524.25a1.25075,1.25075,0,0,0,0-2.5,1.25075,1.25075,0,0,0,0,2.5Z"/><path class="21727bde-3251-4e78-9202-1f433c62fd08" d="M16,575.25a1.25075,1.25075,0,0,0,0-2.5,1.25075,1.25075,0,0,0,0,2.5Z"/><path class="21727bde-3251-4e78-9202-1f433c62fd08" d="M37,415.25a1.25075,1.25075,0,0,0,0-2.5,1.25075,1.25075,0,0,0,0,2.5Z"/><path class="21727bde-3251-4e78-9202-1f433c62fd08" d="M182,452.25a1.25075,1.25075,0,0,0,0-2.5,1.25075,1.25075,0,0,0,0,2.5Z"/><path class="21727bde-3251-4e78-9202-1f433c62fd08" d="M366,556.25a1.25075,1.25075,0,0,0,0-2.5,1.25075,1.25075,0,0,0,0,2.5Z"/><path class="21727bde-3251-4e78-9202-1f433c62fd08" d="M541,664.25a1.25075,1.25075,0,0,0,0-2.5,1.25075,1.25075,0,0,0,0,2.5Z"/><path class="21727bde-3251-4e78-9202-1f433c62fd08" d="M194,703.25a1.25075,1.25075,0,0,0,0-2.5,1.25075,1.25075,0,0,0,0,2.5Z"/><path class="21727bde-3251-4e78-9202-1f433c62fd08" d="M248,581c6.43452,0,6.44518-10,0-10-6.43452,0-6.44518,10,0,10Z"/><path class="21727bde-3251-4e78-9202-1f433c62fd08" d="M574,531c6.43452,0,6.44518-10,0-10-6.43452,0-6.44518,10,0,10Z"/><path class="21727bde-3251-4e78-9202-1f433c62fd08" d="M707,707c6.43452,0,6.44518-10,0-10-6.43452,0-6.44518,10,0,10Z"/><path class="21727bde-3251-4e78-9202-1f433c62fd08" d="M70,700c6.43452,0,6.44518-10,0-10-6.43452,0-6.44518,10,0,10Z"/><path class="21727bde-3251-4e78-9202-1f433c62fd08" d="M159,656.375a.37522.37522,0,0,0,0-.75.37522.37522,0,0,0,0,.75Z"/><path class="21727bde-3251-4e78-9202-1f433c62fd08" d="M451.66667,450.375a.37522.37522,0,0,0,0-.75.37522.37522,0,0,0,0,.75Z"/><path class="21727bde-3251-4e78-9202-1f433c62fd08" d="M702.33333,511.70833a.37522.37522,0,0,0,0-.75.37522.37522,0,0,0,0,.75Z"/><path class="21727bde-3251-4e78-9202-1f433c62fd08" d="M671.66667,601.70833a.37522.37522,0,0,0,0-.75.37522.37522,0,0,0,0,.75Z"/><path class="21727bde-3251-4e78-9202-1f433c62fd08" d="M545,728.375a.37522.37522,0,0,0,0-.75.37522.37522,0,0,0,0,.75Z"/><path class="21727bde-3251-4e78-9202-1f433c62fd08" d="M118,236.5c3.21726,0,3.22259-5,0-5-3.21726,0-3.22259,5,0,5Z"/><path class="21727bde-3251-4e78-9202-1f433c62fd08" d="M409,713.5c3.21726,0,3.22259-5,0-5-3.21726,0-3.22259,5,0,5Z"/><path class="21727bde-3251-4e78-9202-1f433c62fd08" d="M654,578.5c3.21726,0,3.22259-5,0-5-3.21726,0-3.22259,5,0,5Z"/><path class="21727bde-3251-4e78-9202-1f433c62fd08" d="M564,736.5c3.21726,0,3.22259-5,0-5-3.21726,0-3.22259,5,0,5Z"/><path class="21727bde-3251-4e78-9202-1f433c62fd08" d="M352,227.5c3.21726,0,3.22259-5,0-5-3.21726,0-3.22259,5,0,5Z"/><path class="21727bde-3251-4e78-9202-1f433c62fd08" d="M337,626.5c3.21726,0,3.22259-5,0-5-3.21726,0-3.22259,5,0,5Z"/><path class="21727bde-3251-4e78-9202-1f433c62fd08" d="M293,703.25a1.25075,1.25075,0,0,0,0-2.5,1.25075,1.25075,0,0,0,0,2.5Z"/><path class="21727bde-3251-4e78-9202-1f433c62fd08" d="M396,648.25a1.25075,1.25075,0,0,0,0-2.5,1.25075,1.25075,0,0,0,0,2.5Z"/><path class="21727bde-3251-4e78-9202-1f433c62fd08" d="M510,737.25a1.25075,1.25075,0,0,0,0-2.5,1.25075,1.25075,0,0,0,0,2.5Z"/><path class="21727bde-3251-4e78-9202-1f433c62fd08" d="M225,341.25a1.25075,1.25075,0,0,0,0-2.5,1.25075,1.25075,0,0,0,0,2.5Z"/><path class="21727bde-3251-4e78-9202-1f433c62fd08" d="M224,252.25a1.25075,1.25075,0,0,0,0-2.5,1.25075,1.25075,0,0,0,0,2.5Z"/><path class="21727bde-3251-4e78-9202-1f433c62fd08" d="M81,303.25a1.25075,1.25075,0,0,0,0-2.5,1.25075,1.25075,0,0,0,0,2.5Z"/><path class="21727bde-3251-4e78-9202-1f433c62fd08" d="M102,143.25a1.25075,1.25075,0,0,0,0-2.5,1.25075,1.25075,0,0,0,0,2.5Z"/><path class="21727bde-3251-4e78-9202-1f433c62fd08" d="M247,180.25a1.25075,1.25075,0,0,0,0-2.5,1.25075,1.25075,0,0,0,0,2.5Z"/><path class="21727bde-3251-4e78-9202-1f433c62fd08" d="M431,284.25a1.25075,1.25075,0,0,0,0-2.5,1.25075,1.25075,0,0,0,0,2.5Z"/><path class="21727bde-3251-4e78-9202-1f433c62fd08" d="M360,613.25a1.25075,1.25075,0,0,0,0-2.5,1.25075,1.25075,0,0,0,0,2.5Z"/><path class="21727bde-3251-4e78-9202-1f433c62fd08" d="M259,431.25a1.25075,1.25075,0,0,0,0-2.5,1.25075,1.25075,0,0,0,0,2.5Z"/><path class="21727bde-3251-4e78-9202-1f433c62fd08" d="M313,309c6.43452,0,6.44518-10,0-10-6.43452,0-6.44518,10,0,10Z"/><path class="21727bde-3251-4e78-9202-1f433c62fd08" d="M346,714c6.43452,0,6.44518-10,0-10-6.43452,0-6.44518,10,0,10Z"/><path class="21727bde-3251-4e78-9202-1f433c62fd08" d="M506,611c6.43452,0,6.44518-10,0-10-6.43452,0-6.44518,10,0,10Z"/><path class="21727bde-3251-4e78-9202-1f433c62fd08" d="M135,428c6.43452,0,6.44518-10,0-10-6.43452,0-6.44518,10,0,10Z"/><path class="21727bde-3251-4e78-9202-1f433c62fd08" d="M164,290.375a.37522.37522,0,0,0,0-.75.37522.37522,0,0,0,0,.75Z"/><path class="21727bde-3251-4e78-9202-1f433c62fd08" d="M224,384.375a.37522.37522,0,0,0,0-.75.37522.37522,0,0,0,0,.75Z"/><path class="21727bde-3251-4e78-9202-1f433c62fd08" d="M320,405.375a.37522.37522,0,0,0,0-.75.37522.37522,0,0,0,0,.75Z"/><path class="21727bde-3251-4e78-9202-1f433c62fd08" d="M370.66667,285.70833a.37522.37522,0,0,0,0-.75.37522.37522,0,0,0,0,.75Z"/><path class="21727bde-3251-4e78-9202-1f433c62fd08" d="M474.33333,694.70833a.37522.37522,0,0,0,0-.75.37522.37522,0,0,0,0,.75Z"/><path class="21727bde-3251-4e78-9202-1f433c62fd08" d="M660.33333,706.70833a.37522.37522,0,0,0,0-.75.37522.37522,0,0,0,0,.75Z"/><path class="21727bde-3251-4e78-9202-1f433c62fd08" d="M572.33333,665.375a.37522.37522,0,0,0,0-.75.37522.37522,0,0,0,0,.75Z"/><path class="21727bde-3251-4e78-9202-1f433c62fd08" d="M813,45.5c3.21726,0,3.22259-5,0-5-3.21726,0-3.22259,5,0,5Z"/><path class="21727bde-3251-4e78-9202-1f433c62fd08" d="M968,68.5c3.21726,0,3.22259-5,0-5-3.21726,0-3.22259,5,0,5Z"/><path class="21727bde-3251-4e78-9202-1f433c62fd08" d="M697,35.25a1.25075,1.25075,0,0,0,0-2.5,1.25075,1.25075,0,0,0,0,2.5Z"/><path class="21727bde-3251-4e78-9202-1f433c62fd08" d="M914,69.25a1.25075,1.25075,0,0,0,0-2.5,1.25075,1.25075,0,0,0,0,2.5Z"/><path class="21727bde-3251-4e78-9202-1f433c62fd08" d="M717,179.25a1.25075,1.25075,0,0,0,0-2.5,1.25075,1.25075,0,0,0,0,2.5Z"/><path class="21727bde-3251-4e78-9202-1f433c62fd08" d="M895,194.25a1.25075,1.25075,0,0,0,0-2.5,1.25075,1.25075,0,0,0,0,2.5Z"/><path class="21727bde-3251-4e78-9202-1f433c62fd08" d="M771,126c6.43452,0,6.44518-10,0-10-6.43452,0-6.44518,10,0,10Z"/><path class="21727bde-3251-4e78-9202-1f433c62fd08" d="M863,177c6.43452,0,6.44518-10,0-10-6.43452,0-6.44518,10,0,10Z"/><path class="21727bde-3251-4e78-9202-1f433c62fd08" d="M702,287c6.43452,0,6.44518-10,0-10-6.43452,0-6.44518,10,0,10Z"/><path class="21727bde-3251-4e78-9202-1f433c62fd08" d="M860,147.375a.37522.37522,0,0,0,0-.75.37522.37522,0,0,0,0,.75Z"/><path class="21727bde-3251-4e78-9202-1f433c62fd08" d="M878.33333,26.70833a.37522.37522,0,0,0,0-.75.37522.37522,0,0,0,0,.75Z"/><path class="21727bde-3251-4e78-9202-1f433c62fd08" d="M806.66667,255.375a.37522.37522,0,0,0,0-.75.37522.37522,0,0,0,0,.75Z"/><path class="21727bde-3251-4e78-9202-1f433c62fd08" d="M1202,40.5c3.21726,0,3.22259-5,0-5-3.21726,0-3.22259,5,0,5Z"/><path class="21727bde-3251-4e78-9202-1f433c62fd08" d="M1357,63.5c3.21726,0,3.22259-5,0-5-3.21726,0-3.22259,5,0,5Z"/><path class="21727bde-3251-4e78-9202-1f433c62fd08" d="M1086,30.25a1.25075,1.25075,0,0,0,0-2.5,1.25075,1.25075,0,0,0,0,2.5Z"/><path class="21727bde-3251-4e78-9202-1f433c62fd08" d="M1303,64.25a1.25075,1.25075,0,0,0,0-2.5,1.25075,1.25075,0,0,0,0,2.5Z"/><path class="21727bde-3251-4e78-9202-1f433c62fd08" d="M1106,174.25a1.25075,1.25075,0,0,0,0-2.5,1.25075,1.25075,0,0,0,0,2.5Z"/><path class="21727bde-3251-4e78-9202-1f433c62fd08" d="M1139,41c6.43452,0,6.44518-10,0-10-6.43452,0-6.44518,10,0,10Z"/><path class="21727bde-3251-4e78-9202-1f433c62fd08" d="M1252,172c6.43452,0,6.44518-10,0-10-6.43452,0-6.44518,10,0,10Z"/><path class="21727bde-3251-4e78-9202-1f433c62fd08" d="M1267.33333,21.70833a.37522.37522,0,0,0,0-.75.37522.37522,0,0,0,0,.75Z"/><path class="21727bde-3251-4e78-9202-1f433c62fd08" d="M1236.66667,111.70833a.37522.37522,0,0,0,0-.75.37522.37522,0,0,0,0,.75Z"/><path class="21727bde-3251-4e78-9202-1f433c62fd08" d="M1110,238.375a.37522.37522,0,0,0,0-.75.37522.37522,0,0,0,0,.75Z"/><path class="21727bde-3251-4e78-9202-1f433c62fd08" d="M749,474.5c3.21726,0,3.22259-5,0-5-3.21726,0-3.22259,5,0,5Z"/><path class="21727bde-3251-4e78-9202-1f433c62fd08" d="M1201,246.5c3.21726,0,3.22259-5,0-5-3.21726,0-3.22259,5,0,5Z"/><path class="21727bde-3251-4e78-9202-1f433c62fd08" d="M1129,159.5c3.21726,0,3.22259-5,0-5-3.21726,0-3.22259,5,0,5Z"/><path class="21727bde-3251-4e78-9202-1f433c62fd08" d="M855,490.25a1.25075,1.25075,0,0,0,0-2.5,1.25075,1.25075,0,0,0,0,2.5Z"/><path class="21727bde-3251-4e78-9202-1f433c62fd08" d="M1054,8.25a1.25075,1.25075,0,0,0,0-2.5,1.25075,1.25075,0,0,0,0,2.5Z"/><path class="21727bde-3251-4e78-9202-1f433c62fd08" d="M733,381.25a1.25075,1.25075,0,0,0,0-2.5,1.25075,1.25075,0,0,0,0,2.5Z"/><path class="21727bde-3251-4e78-9202-1f433c62fd08" d="M878,418.25a1.25075,1.25075,0,0,0,0-2.5,1.25075,1.25075,0,0,0,0,2.5Z"/><path class="21727bde-3251-4e78-9202-1f433c62fd08" d="M436,83.25a1.25075,1.25075,0,0,0,0-2.5,1.25075,1.25075,0,0,0,0,2.5Z"/><path class="21727bde-3251-4e78-9202-1f433c62fd08" d="M1138,247c6.43452,0,6.44518-10,0-10-6.43452,0-6.44518,10,0,10Z"/><path class="21727bde-3251-4e78-9202-1f433c62fd08" d="M1015.66667,166.375a.37522.37522,0,0,0,0-.75.37522.37522,0,0,0,0,.75Z"/><path class="21727bde-3251-4e78-9202-1f433c62fd08" d="M1266.33333,227.70833a.37522.37522,0,0,0,0-.75.37522.37522,0,0,0,0,.75Z"/><path class="21727bde-3251-4e78-9202-1f433c62fd08" d="M814,202.5c3.21726,0,3.22259-5,0-5-3.21726,0-3.22259,5,0,5Z"/><path class="21727bde-3251-4e78-9202-1f433c62fd08" d="M407,153.5c3.21726,0,3.22259-5,0-5-3.21726,0-3.22259,5,0,5Z"/><path class="21727bde-3251-4e78-9202-1f433c62fd08" d="M466,175.25a1.25075,1.25075,0,0,0,0-2.5,1.25075,1.25075,0,0,0,0,2.5Z"/><path class="21727bde-3251-4e78-9202-1f433c62fd08" d="M921,307.25a1.25075,1.25075,0,0,0,0-2.5,1.25075,1.25075,0,0,0,0,2.5Z"/><path class="21727bde-3251-4e78-9202-1f433c62fd08" d="M920,218.25a1.25075,1.25075,0,0,0,0-2.5,1.25075,1.25075,0,0,0,0,2.5Z"/><path class="21727bde-3251-4e78-9202-1f433c62fd08" d="M777,269.25a1.25075,1.25075,0,0,0,0-2.5,1.25075,1.25075,0,0,0,0,2.5Z"/><path class="21727bde-3251-4e78-9202-1f433c62fd08" d="M943,146.25a1.25075,1.25075,0,0,0,0-2.5,1.25075,1.25075,0,0,0,0,2.5Z"/><path class="21727bde-3251-4e78-9202-1f433c62fd08" d="M995,.25a1.25075,1.25075,0,0,0,0-2.5,1.25075,1.25075,0,0,0,0,2.5Z"/><path class="21727bde-3251-4e78-9202-1f433c62fd08" d="M430,140.25a1.25075,1.25075,0,0,0,0-2.5,1.25075,1.25075,0,0,0,0,2.5Z"/><path class="21727bde-3251-4e78-9202-1f433c62fd08" d="M831,394c6.43452,0,6.44518-10,0-10-6.43452,0-6.44518,10,0,10Z"/><path class="21727bde-3251-4e78-9202-1f433c62fd08" d="M860,256.375a.37522.37522,0,0,0,0-.75.37522.37522,0,0,0,0,.75Z"/><path class="21727bde-3251-4e78-9202-1f433c62fd08" d="M920,350.375a.37522.37522,0,0,0,0-.75.37522.37522,0,0,0,0,.75Z"/><path class="b399f3d6-3175-4115-928f-714713750b6c" d="M640.84582,724.18973a4.85388,4.85388,0,0,0,.93351-5.65479l.52867-1.39088a24.42467,24.42467,0,0,1,5.13574,12.38348c-1.19094.39231-2.982-1.01911-3.52142.29446-.82093,1.99878,1.96373,1.619,2.60469,2.82842-2.99267,1.1263-6.32052,1.93831-5.88595,6.27791l-9.50691.01848c-3.36233-5.06941-6.83122-1.27378-10.26831-.12341q-43.4673.08571-86.93458.164-268.649.04-537.29793.16779c-4.89562.00439-5.53027-1.68116-5.48577-5.87264.19484-18.3522.06772-36.70773.08712-55.062q.06769-64.02985.16275-128.05978C5.87093,547.86,12.04067,531.66,26.43569,529.22781c-.77961-5.5763,5.70522-7.01575,6.61829-11.971,1.14419-6.20944,4.35934-7.73672,10.48119-6.63318a22.52957,22.52957,0,0,0,5.132.29584c1.26078-.06595,3.04786.01444,3.16011-1.79388.089-1.43357-1.50518-1.44834-2.51645-1.9238-1.902-.89428-3.79616-1.8233-5.6082-2.88375-.991-.58-1.93957-1.45818-1.57256-2.81a2.53106,2.53106,0,0,1,3.16888-1.862c3.755,1.07486,7.75806-.35886,11.23559.81226,2.62548.88416,2.29247-.1462,3.4253-1.69366,3.06923-4.19261,4.5037-10.25227,11.02628-11.04521,1.4595-.17746,3.48209.80211,4.23381-.84777.88475-1.94188-1.31706-2.92039-2.30229-4.23434-1.021-1.36168-2.6308-2.559-1.58785-4.53288.81491-1.54225,2.46863-1.71327,4.01958-1.83987,1.343-.10963,2.69411-.16078,4.04181-.1639,2.85023-.00658,5.55369-.00588,5.18382-4.169-.15534-1.74828,1.43286-2.60568,2.72249-3.45731a17.21573,17.21573,0,0,0,5.59546-6.503q1.15264-.15282,2.30526-.30558,1.63132.82476,3.26266,1.64959l.06786,2.48815c-.60058,4.31637-2.19063,8.3523-4.27525,13.0329,3.136-1.04357,5.4355-1.80878,7.73507-2.574Q98.20185,483.21913,94.419,490.178c-.57153,1.05486-2.28628,2.94733-.24376,3.159,9.65317,1.00031,6.179,3.18409.72855,5.83073a.67259.67259,0,0,0-.27511.4961c-.40444,7.77244-6.20116,8.6835-12.09849,9.82251-2.79686.54025-7.54179,1.18205-6.02716,5.01733,1.46238,3.703,4.929-.08885,7.50794-.6194q-.06733,3.09716-.12662,6.18937c-3.39016,2.43424-8.95273.96859-11.06368,4.02085-2.71045,3.91907-5.41044,5.49952-10.222,4.191,2.271,5.33958,6.26408,8.0863,10.20478,5.397C79.42771,529.162,85.747,524.16241,92.66763,520.036c1.89274-1.39574,3.73094-1.30125,5.92889-.40909,4.59669,1.86578,9.33761,3.3762,14.01929,5.03255-1.326,2.97087-6.271,2.24007-6.72089,6.83536,5.437-.37942,8.8278-5.12205,13.82339-5.57078.58463,1.66236,1.58938,2.48925,2.47419.41567a3.68384,3.68384,0,0,0-1.41106-4.92844l-.31517-1.24953c2.56632-1.52884,5.25634.723,9.51795-.72044-7.66527-1.94939-3.64908-7.14687-4.83874-10.89556,4.41768-3.02118,9.59216-4.32363,14.4435-6.36,1.66656,7.4441,8.71505,6.731,13.76153,9.0219.97364.442,2.36627.89595,2.99962-.48757.60692-1.32585-.55844-2.197-1.48815-2.7515-4.74319-2.8287-9.69924-5.14955-15.295-5.72792-1.408-4.002-7.537-4.615-7.1242-9.92418,3.68123,1.38557,6.90058-1.425,10.45941-1.15129,3.94553.8078,7.662.61766,10.451-2.77787,2.61489-3.18363,3.01162-5.556-2.30792-5.43109.37873-5.00364,3.39417-6.85019,8.07989-7.14044,3.25089-.20143,7.46606-1.23831,6.88555-4.975-.89207-5.74177-.73886-6.89879,5.44357-7.25842,1.73894-.10121,4.27709.31633,4.769-1.22351,1.96409-6.14817,6.96724-8.00251,12.25566-9.714.31488-.10191.51734-.55125.77218-.83945q.97185.3561,1.94354.71322c1.33162,2.37533.2332,4.56389-.84405,6.52025-1.61548,2.93388-1.27357,5.04066,1.77871,6.56578q-2.08524,2.33516-4.17052,4.67027c-1.71859.16709-4.6859.58057-4.0643,2.13025,2.24427,5.59521-1.74025,6.57549-5.042,8.76-1.95523,1.29364-3.14284,3.81637-4.51578,5.89215a2.56376,2.56376,0,0,0,.40773,3.20986,1.1744,1.1744,0,0,0,1.973-.07845c3.34408-7.36219,12.40315-5.59514,17.07841-10.77648a10.24318,10.24318,0,0,0,6.26774-.03827c1.24743-.42162,2.76877-1.03663,3.85081.03986,1.48294,1.47524.02278,2.94485-.61933,4.19973-3.3113,6.47126-9.18557,10.19265-15.225,13.62079-2.37275,1.34681-4.25479,2.48514-3.29579,5.76166,1.008,3.44386.40666,5.9272-4.15612,4.89414-1.38716-.314-2.09534.55225-2.5775,1.75823-1.21,3.02656-3.37921,5.998-3.48839,9.05139-.13034,3.646-1.45488,3.94165-4.17255,3.30976-3.05389-.71006-4.99509.60163-6.91855,3.4481,3.2139.8158,7.40086-.71236,7.94755,3.59459.72176,5.68619-1.69349,9.92539-7.18412,11.74175.47026,2.41172,3.65449.18935,3.38695,2.61828-.20754,1.88426-2.00729,2.02221-3.59291,2.22552-1.4283.18312-3.14582-.51-4.47955,1.6293,2.914.56343,3.18239,5.22449,7.41509,3.77612,3.29794-1.12856,5.9659-2.741,7.10946-6.16954.5488-1.64531.87437-3.365,1.30105-5.051l-.04414.043c2.392-.56977,6.52555.8141,4.745-4.38576a1.63547,1.63547,0,0,1,1.65113-2.35788c3.43308.0427,3.96378-3.13371,5.68886-4.985a5.53629,5.53629,0,0,0,1.71433-4.41734q2.34228-2.57977,4.68457-5.15953c4.23285,4.52495-.73009,8.30337-1.01167,12.46182-1.74572,2.54221-3.49878,5.07939-5.2345,7.62839-1.10031,1.61578-1.25549,3.30357.138,4.77,1.50618,1.58505,2.756.04807,4.10588-.52644,1.437-.61161,2.333-2.79472,4.73914-1.5225-1.89308,5.21561-5.98856,7.789-10.74077,9.658-1.39566.54892-3.73713.20093-4.02254,1.8011-1.17319,6.57725-5.52011,11.37917-8.81477,16.7686a4.10864,4.10864,0,0,0,.05678,4.82592c1.22289,1.94,2.73695,1.78,4.50336,1.095,1.43807-.55776,2.89345-1.07135,4.3446-1.59493,1.49312-.53865,3.42288-2.39526,4.305.22182.9211,2.7327-1.23352,3.623-3.59237,3.97483-3.30088.49235-6.58734,1.08134-10.95935,1.80854a14.94588,14.94588,0,0,0,2.53064,1.62806c1.983.50792,4.026,1.25572,3.66427,3.65884-.35363,2.34946-2.44882,2.31639-4.51489,2.51315-2.45311.23371-4.79835,1.42677-7.24951,1.89271-4.1282.78469-3.51081,3.24141-1.61567,5.317,3.31762,3.63364,7.48527,2.94815,11.32577.87538,4.17167-2.25153,6.79928,1.36249,10.13035,2.24424a1.42293,1.42293,0,0,1,.79361,2.31944c-1.96934,2.27858-4.92085,2.38712-7.5077,2.199-3.99444-.29042-6.81075,1.23668-9.87432,3.59229-2.32341,1.78645.46435,4.44778-1.74722,5.55029-4.185,2.08635-3.90735,5.66123-3.45833,9.37189-.47345,1.76146-3.83613,2.53057-1.9466,5.05107,3.39555,4.52934.33271,7.06932-2.99208,9.03978-3.0096,1.78375-3.08049,3.15658-.98866,5.75837,1.32005,1.64187,4.68673,2.79493,2.57711,6.02366-3.8699-1.5589-7.654.41376-11.73158-.22876,2.81419,6.17121,6.577,6.05014,11.67117.15718.59383-2.23455,2.8455-2.39647,4.38709-3.38527,1.97286-1.26542,3.46035-2.96337,2.94511-5.175-1.3301-5.7098,4.73479-7.0485,6.16686-11.079.55417-1.55974,4.12666,1.46253,3.52743-1.916-.41482-2.33884-2.84691-2.18909-4.72917-2.45785,1.04419-2.78849,3.60254-3.31532,6.03194-3.87783a6.644,6.644,0,0,0,4.90974-3.5382c2.78089-5.33349,6.89332-9.80279,10.1424-14.86307,1.76071-2.74218,3.44894-7.05444,6.46716-7.74376,4.91423-1.1224,4.8575-4.29046,5.82388-7.81973,1.06923-3.90481,1.37174-9.17975,6.47961-9.97421,4.20752-.65434,6.08409-1.6,4.45983-6.03732a2.56449,2.56449,0,0,1,.82547-3.14462c1.26953-.76833,2.09968.456,3.01034,1.08283,1.92877,1.32744,3.84146,2.67847,6.09331,4.2523.71194-3.03148-1.14478-4.19212-2.15066-5.69394-3.8413-5.73508-3.00376-10.16742,3.49685-16.7074,4.10715-4.13207,6.30962.86324,9.28726,2.15054a12.84722,12.84722,0,0,0,2.39071.47939c-1.90911-5.97951-3.40093-11.517,4.57021-13.61676a1.50417,1.50417,0,0,0,.92138-.65512c3.55211-7.93687,10.64635-12.65461,16.62264-18.39227,1.10466-1.06056,1.98662-2.68961,3.76657-2.07789,1.9503.6703,1.40095,2.64065,1.28277,4.04272-.50024,5.934-1.73388,11.868-.80984,17.814.75042,4.8289.76913,9.051-4.31323,11.61207a3.6817,3.6817,0,0,0-1.264,1.69837c5.67652,5.45492-.68675,8.5395-2.94588,11.39687-5.44113,6.88205-4.1339,17.42705-13.05538,22.17877,6.6405-1.23065,7.49821-.52654,9.56177,5.73862,1.63626,4.96781-2.61807,5.79943-5.09567,7.42792-2.084,1.36978-3.86859,2.2972-2.02993,4.70832,3.2091,4.20812,1.58417,6.60551-2.59565,8.38508-3.55531,1.51365-2.2647,6.15627-5.37542,8.33573-.9759.6838,2.79654,2.04777,3.33655,3.98007-2.965.48428-6.37284.15937-7.44664,4.08719-1.11071.19477-2.37142.55571-2.18123,1.87431.29646,2.05534,2.80884,1.22131,3.80945,2.50082l.1793,1.2131c-.23465,3.44163-2.38614,6.08646-3.76325,9.05316q-1.37271.3855-2.74543.77095c-1.51211.0725-3.76727-1.59338-3.91413,1.67309.58184,3.43787,3.395,2.54061,5.57662,2.87026q1.71072.93351,3.42138,1.867.4182.61713.83651,1.23462c-4.0083,1.15965-6.31561,4.07572-7.94386,7.693-1.71052-.143-1.44864.92615-1.21539,1.97768a5.89045,5.89045,0,0,0-5.19024,2.44638c-.58875.8106-1.77585,2.75281-.57323,2.44518,5.11768-1.30911,11.21777,1.267,15.41643-3.66387l.42454.04977.42132-.07208a2.5946,2.5946,0,0,0,3.88078-.54353c.85317-1.10145-.20957-1.57065-.86079-2.14215l.3143-6.67418c4.14863-1.1515,9.9722.11073,10.01861-6.95228l-.35351.00007.04565-.35054c2.58372,1.13239,5.25942,5.168,7.175,3.75386,3.14138-2.31915,7.2177-2.29387,9.91755-5.04186,4.23144-4.66089,4.29964-5.14864.9573-6.84679-1.96584-5.05383-5.39913-5.71171-12.88038-2.46819-7.57926.664-9.198-4.83385-10.751-10.39964,3.77855-5.97488,9.0625-2.34967,13.58106-1.73,2.37359.32554,4.11118,1.1605,5.95466-1.37828a28.57126,28.57126,0,0,1-8.82525-6.834c4.5497-.34239,8.69183,1.65794,11.98065-1.53093-.706-2.06618-2.96574-1.72541-4.14286-2.88534-1.23825-1.22011-2.49516-2.77624-1.79094-4.557.72174-1.82511,2.55063-1.26762,4.07506-.97642,2.40256.45915,4.80667,1.0218,7.842-.07306-1.35575-.7757-2.31117-1.29105-3.23454-1.85859-1.18366-.72748-2.37531-1.55245-1.78143-3.19623.48969-1.35534,1.79-2.756,2.98205-2.30117,4.87138,1.85894,5.38679-2.21961,7.24754-4.74344a44.41058,44.41058,0,0,0,4.68719-8.57631c.602-1.35938,1.231-3.51852,2.94632-3.18448,7.12419,1.38734,9.60583-4.09129,12.592-8.43563,1.8952-2.75712,2.37392-7.56294,5.32546-.54991,1.37711,3.27192,5.40072,3.68384,8.07869,2.18293,2.94666-1.65157-.81318-3.27524-1.185-5.02714-.26487-1.24779-1.06934-3.2346,1.25459-2.5632,6.998,2.02186,4.49556-2.29756,3.88087-5.45074l-.02007.019c3.98378-1.79636,2.55237-5.00236,1.82843-7.80621a46.27957,46.27957,0,0,0-2.5763-6.25q2.283-.152,4.56587-.304c1.56374.52595,2.46723.00754,2.63885-1.66838.61615-1.72931.38091-4.34466,2.8628-4.4487,2.31263-.09692,3.59122,2.16559,4.49567,3.918.73473,1.42356.54378,3.35914.625,5.07419.05664,1.19674.024,2.72243,1.50476,2.569a40.30077,40.30077,0,0,0,8.46331-1.70566c2.8171-.93145.27284-2.87773.40116-4.35173a2.77631,2.77631,0,0,1,2.09348-2.503c4.8114-1.38345,6.4749-4.29028,4.04148-10.20335,4.23258,3.61325,6.13284,2.05952,7.726-1.44228.65378-1.43687,2.40316-2.3976,3.70954-3.50985,1.81919-1.54876,3.67215-4.36426,6.20158-1.52494,1.95283,2.19221,1.895,4.80858-.53469,7.18317-2.93178,2.8653-3.47989,7.457-1.66958,10.04337,3.43284,4.90462-.20426,6.11393-2.81041,8.08913-1.15713.87694-3.06779.86788-2.92895,2.986-1.56488,2.15454-3.13028,4.30858-4.88816,6.72742,7.12153.85683,6.20958-2.80746,4.83442-6.75383,3.26487.45348,9.404-3.91988,7.87736,4.684-.03858.21729.86466.60167,1.32869.90816.67859,1.51528.98392,3.38846-.47334,4.22086-4.0429,2.30952-5.01344,6.35487-6.60214,10.15609-.384.91871-2.20034,1.32164-2.43285,2.20523-.6775,2.57489-4.73364,4.15289-2.72166,7.3184,2.10944,3.31885.40778,3.45727-2.27274,4.27771-8.47942,2.59527-8.43223,2.74941-9.80091,4.93687a8.38779,8.38779,0,0,1,6.88512,1.3239c-.00824-.008-.03242-.35938-.03242-.35938l-.19216.28369c-.2102-2.27858,2.16654-2.415,3.019-3.68057,1.75763-2.60937,5.89644-1.96218,6.86542-5.448.53989-1.94221.32663-4.64036,2.7391-5.25271,2.4074-.611,3.47214,2.13563,6.30831,4.88185-1.59808-12.0122,4.26352-19.10354,10.91363-25.80391,4.49429-.80316,6.92183-3.78911,4.18938-7.48442-2.75924-3.73163-.6885-4.61816,1.73289-5.90358,2.17726-1.1559,5.0099-1.56725,3.64468-5.21763-.49458-1.32238.36749-2.1362,1.71834-2.39321,3.75941-.71523,5.92733-3.62818,7.79438-6.42428,2.64615-3.96276,6.18194-7.65314,7.98732-11.72284,2.641-5.95336,5.40313-6.915,10.5952-4.05788.41889.23053,1.07479.03041,1.6361.03041-.52871-6.086,2.47133-10.97306,4.83049-15.997.70578-1.503,2.83854-1.37251,2.95774.32473.53341,7.59306,2.7642,15.47315-1.2736,22.63791-1.8181,3.22614-2.73075,6.20863-2.1269,9.75054a33.47433,33.47433,0,0,0-3.58234,2.63046c-1.0265.97121-2.67032,2.29391-.913,3.68879,2.17468,1.72616,2.82718-.36667,3.4959-1.943l2.90421-.03547q.78562.54965,1.56947,1.10017.60281,1.77318,1.20918,3.54457l-.26437.3511c-.68362.64039-2.46479,1.25537-.04556,1.96762q1.26129-.16816,2.52259-.33641l-.02825,8.6058c-9.389-1.3525-10.75-.36242-9.224,6.70994-.91836,2.76569.092,4.84489,2.33338,6.45979a1.36965,1.36965,0,0,0,2.02522-.29673c1.47953-1.91388-.91071-3.087-.969-4.71972,3.94456-1.30323,5.47365-4.31963,5.80535-8.18528,4.65451.608,7.09063-3.30108,10.06061-5.58306,1.01766-.782-2.38733-2.91469-3.77347-4.42881a.99983.99983,0,0,1,.3585-.67374q3.67552-.67246,7.351-1.34486c3.07548-.47415,1.13957-2.25854.66535-3.26225-1.47521-3.12206-2.02037-5.94234,1.64116-7.86044,5.14743-2.69645,7.56524-6.77843,8.62852-12.61164a10.96636,10.96636,0,0,1,5.85388-7.49143c1.49882-.66659,1.36678-2.20413,1.86532-3.40647a2.46731,2.46731,0,0,0,1.644-2.41137l.11643-1.4071,4.95765.41419q1.25159.55951,2.50316,1.11893l.82858-.87141.46573-.19909c2.46953-.26689,4.7005-.42445,6.79886,1.7069,2.695,2.73737,4.72117,1.5534,5.66311-1.912l2.61148-.77559c1.8592,6.65868,3.9703.85907,5.48827-.11416,1.73971-1.11533,4.58077-1.7229,4.1982-4.74985a2.303,2.303,0,0,0-1.373-1.63783c-3.14154-.51391-2.73695,3.21807-4.74175,4.14995q-.84132-.71909-1.68268-1.43814c.26384-2.48058.247-5.06113,2.44142-6.854,4.45072-2.30357,1.75926-6.02426,1.825-9.19787.84536-.49292,1.17664-1.13458.59066-2.04161q-.20694-1.248-.41383-2.49608c.66988.32522,1.32709.6806,2.0124.96905,1.23041.51787,2.39679,2.84552,3.68557,1.11978,1.16025-1.55354-1.24977-2.28017-2.05747-3.38881,1.72043-1.7064,4.0292-2.73174,4.98976-5.32007.81113-2.18573,2.45211-3.92679,5.16849-3.91815-.00464,2.6837,1.74368,4.74535,2.52653,7.14826-3.24679,2.33649-3.87748,5.65365-2.57556,9.05085.93188,2.43151,1.169,4.03663-.98742,5.91809-1.38,1.204-1.07338,2.86949,1.03227,3.47714,1.93825.55939,2.74983,2.103,3.15995,3.7935,1.14407,4.7159,2.71439,2.43895,4.32911.34689q1.254.01068,2.508.02145-.18112,2.94969-.36236,5.89941c-4.75066.49044-6.07414,5.58137-9.87041,7.35291-1.44943,1.56027-.83877,2.59311.85722,3.34806l.03526.0422a4.64088,4.64088,0,0,0-.14036,1.1201l-.19038.10571-5.6429,13.602c-3.80788,1.72311-.83838,6.32042-3.59937,8.48749q-.55176.82875-1.10357,1.65738.685.15341,1.37.30674,1.11553.10371,2.23108.20738c5.30627.254,8.20255-3.6724,11.61816-6.69793l.20064-.04121c2.08293.25446,4.11342.64924,5.7195,2.16534-3.8632,4.73151-3.81782,6.99635.5867,9.28063a17.32217,17.32217,0,0,0-2.63245,1.38826c-1.711,1.34115-5.517,1.65023-4.63511,4.225.83166,2.428,4.20326,1.74414,6.85546,1.94684,6.37129.48676,8.36543-4.523,11.44144-8.0127,1.825-2.07035,3.47791-2.547,5.33919-1.05326,2.25975,1.81352,5.10821,3.384,5.45294,6.75563.16843,1.64721-3.961.67986-2.17313,4.04772,1.53259,2.88683-4.11741.351-3.66206,3.36962.34869,2.31136,4.00435.78263,4.04715,3.314a3.20238,3.20238,0,0,1-1.25332,2.44624c-4.0915,2.27192-4.60559,7.46785-8.35594,9.98489-.74072.49716-1.53843,1.19363-.30338,2.21189,3.22554,2.6592.204,2.87812-1.45014,3.28119a15.828,15.828,0,0,0-6.44032,3.67123c-1.87208-.29311-3.79362-.63735-4.76653,1.61072-.39977.92367-.30341,1.97293.80894,2.27759,2.0649.56556,2.9662-.95043,3.8054-2.44185,8.07157-1.23646,14.35911-5.20945,19.59649-11.54053,3.65063-4.41294,8.26489-8.02866,12.402-11.95612.5721.53185.78433.63288.82564.78135,1.97032,7.07711-7.15339,11.54867-4.45577,18.8311.05292.1428-.51126.75134-.75145.73031-4.06842-.35606-4.2873,3.74586-6.44584,5.58094-3.02925,2.57538-2.85561,5.69918.69006,7.18055,4.73229,1.97718,2.87292,3.63045.76546,6.23995-5.18885,6.42482-13.56794,8.37071-19.25987,14.05212a3.2101,3.2101,0,0,1-2.62872.8535c-5.26032-1.7451-4.68641,2.46882-6.07177,5.43672,5.0037.55324,10.55289-5.03542,14.28714,2.46075-5.66488.40144-10.824,3.51427-16.4123.47331-2.54429-1.38444-3.97621,1.89937-6.31022,1.90086-2.91335.00191-2.91331.06825-4.04365,2.61191,8.59093,2.49813,16.5962-1.3455,24.78838-2.4672,1.54948-.21212,3.6747-2.37756,4.67572-.51274,1.13664,2.11751-1.56771,3.17662-3.21846,3.93723-4.73888,2.18343-9.57089,4.16472-14.94707,6.47509,2.66579,0,5.24375-.8,6.37313.14011,4.59437,3.82452,6.07035-.36129,8.34483-2.7157q2.191,1.95537,4.382,3.91082-1.11261.85-2.22519,1.70007c-1.55047.66822-3.0581,1.76832-4.65912,1.92713-5.878.583-5.52869,3.29655-2.72633,7.08078-.25474.48456-1.46529.35882-.88076,1.37934q.44669-.68361.89333-1.3673,2.79091.6493,5.58176,1.29863.80957,1.75528,1.61914,3.51065c-.75215.07222-1.503.16752-2.25677.21177-1.40547.08234-3.25369-.96565-3.94343,1.07369-.60538,1.7902.89216,2.67394,2.1527,3.55484a32.7831,32.7831,0,0,0,2.72073,2.03531c2.64448,1.45956,4.93428-.31436,6.74282-1.57482,1.66987-1.16376-.63133-2.47024-1.235-3.69587q1.55952-1.01464,3.119-2.02937l.115-.02074,3.20689-.82242.09133-.02839a1.43392,1.43392,0,0,1,.671-.66964c1.25586,4.70124,1.25586,4.70124,3.97865,2.9206,1.62891-.259,3.43946-1.21522,4.556.88169,1.11058,2.08565-.95387,2.43852-1.94674,3.42307a40.42312,40.42312,0,0,1-12.18361,7.24512c-.79216.25885-1.32635,1.30691-1.97927,1.99169q-1.54959,1.18458-3.09913,2.36907c-.73442-.43514-1.57624-1.57815-2.2497-.13587-1.69121,3.622,1.62233,11.43617,5.3061,13.15981a2.11241,2.11241,0,0,0,2.55346-.28476,1.94423,1.94423,0,0,1,3.00337.21786c3.42641,3.873,6.23259,1.47272,8.6492-1.17891,2.60685-2.86042,4.85931-6.04383,7.12419-8.90659,4.82723,6.75949,1.86875,12.59673-2.73118,16.91572-2.23344,2.097-3.93362,7.289-7.35358,5.94387-5.42128-2.13238-4.39506,1.41311-4.75785,3.96689-.26486,1.8644.09222,3.76554-1.67684,5.23091-.71438.59168-2.39293,1.535-1.28613,2.71528,2.056,2.19263,5.19465.26784,7.65831,1.54423.89435.46332,2.143-.34225,1.75295-1.39343-1.266-3.41238,2.11606-4.40862,3.0158-7.9505,1.13876,3.23538,3.93146,4.132,3.2495,6.96354l-.3043.04567.30278.04227q.73555.622,1.4711,1.24411c3.1192,1.36093,5.80142-.96112,8.75873-1.19165,1.21816-.095,2.90835-2.078,3.24777-3.47766.41727-1.72082-2.02185-1.84479-3.09732-2.80641-2.11832-1.89406-4.50045-1.7075-6.911-.54091-1.71-4.41606-.058-9.41,3.45214-10.1185,5.43474-1.09677,2.40585-2.67082,1.92228-5.12449-.52095-2.64356-3.7294-6.4811,1.35059-8.08955,2.45768-.7781,4.85106-1.46076,6.43105-3.49388,1.97265-2.53856-.64917-4.96016-.93567-7.50425,3.17393-.39754,4.96721,2.89292,7.86264,2.03454-.0155.00283-.33177.24624-.33177.24624l.19353-.20553a5.10484,5.10484,0,0,0-2.21981-3.66954c-3.6587-2.94481-2.29876-8.98936,1.93091-10.49324,2.99817-1.06605,7.10776-1.82659,2.83982-6.3994-1.309-1.40249.50233-2.69489.91018-4.06524,1.04633-3.516,5.42189-6.48231,1.37477-10.9349,2.36432-.5812,3.87274,1.52675,5.52466.30154.77251-3.14348-6.09372-8.66077,3.06794-9.4039,1.30656-.106-.6234-2.57821-.97833-3.97263-.3962-1.55655-2.13075-4.48657-.97471-4.42774,5.39558.27407,2.68554-4.44367,4.37025-6.34184,1.14187-1.28659-.5708-5.23975,2.47526-4.71292,2.74417.47465,2.83727,3.88349,2.04268,6.33915-.57731,1.78411.57228,3.94332.05423,4.76078-4.09859,6.46744,3.26916.68422,2.87607,3.29769-1.28043,2.45509-4.76744,5.08321-3.47589,8.28716,1.76265,4.37245,7.07519,7.82,2.09789,13.1938,2.8428,4.866,2.38344,10.76158,4.7455,15.69766,1.81328,3.78947,1.01868,6.30623-2.38825,8.11887-2.42316,1.28921-4.169,4.22256-2.5979,5.37824,2.69319,1.98087,4.88667,5.6208,9.04551,5.09617,1.17685-.1484,1.50494-1.1435,1.11575-2.19114-1.14272-3.07566-1.1326-5.66725,2.47987-7.10068a1.37991,1.37991,0,0,0,.584-2.34648c-3.29839-3.69977.48909-7.23259.46431-10.87833-.03207-4.72878,2.47633-9.45205,3.71046-14.22437.44222-1.70956.49568-4.0554,2.70735-3.56836,1.73731.38268,3.7288.51125,4.66252,3.7666,1.30726,4.55737,4.56339,8.47,1.43308,13.43955-.15088.23951.31619,1.187.714,1.40348,3.32176,1.80868,1.3409,4.34972.80033,6.51948-.30713,1.23243-1.55584,2.221-.73045,3.70408,2.19291,3.94014,2.23476,7.86257.753,12.17965a5.92134,5.92134,0,0,0,1.81845,6.35069c4.92037,4.2188,4.90252,4.25654-.62043,7.54743-1.36794.81506-4.11742,1.02435-2.97774,3.18249.6537,1.238,3.30045,1.42367,5.05,2.083.70963-3.00634,10.22858.96006,5.23564-6.60528-.14655-.22218.09282-.7483.23117-1.10181,2.435-6.22345,3.42166-12.77918,4.898-19.232.73505-3.21265-1.70276-5.593-.3504-8.15363,1.59706-3.02418,1.9073-6.14982,2.11164-9.47994.46105-7.51111,1.19249-15.02194,4.2108-22.175-.75332,6.12525,3.40927,11.4249,2.21968,17.62238-.76812,4.00209-4.32388,8.60414,1.226,12.35495,1.37857.93167-.416,2.13882-1.41941,3.07983-1.69455,1.58927-4.78932,3.41458.13891,5.08336,1.135.38437.60337,1.77873.45136,2.98425a16.78885,16.78885,0,0,0,.40866,7.18026c1.77264,5.33265,2.43689,9.89186-4.80419,11.32083,4.71909,6.444,4.65027,7.3441-.70086,9.30464,3.55066,2.23518,7.47862,3.5268,10.2579,6.77967-.06655-3.50959,2.86906-7.04984-1.41346-9.97519-1.51217-1.03284-.90215-4.04187.7114-4.40884,5.9181-1.34606,4.168-3.97985,1.80132-7.20157-.665-.9054.321-1.74531,1.15221-2.30577.4585.48216.89811.6011,1.29672-.06747q.84132-.99543,1.68272-1.99078c.82362-.50537,2.856-.286,2.13068-1.72152-.73244-1.44964-2.61645-.98958-4.07912-.44314q-1.06158-1.02208-2.12317-2.04409-.22526-.75424-.45044-1.50848a3.80651,3.80651,0,0,1,3.21308-.42919c1.09911.6617,2.57425,1.83827,3.41968.49319,1.09217-1.73759-1.27979-2.27893-2.0312-3.41436-.29368-.8797-1.11051-2.07978-.79871-2.58891,2.68441-4.38363,1.65561-9.36432,2.4912-14.0274.27633-1.542-1.30082-4.14114,1.12368-4.3837,2.50217-.25028,1.8765,2.5855,1.77448,4.02424-.31294,4.41047,2.45346,5.51241,5.88361,6.20081.93061.18677,2.00161.79991,2.60838-.22586.69675-1.17784-.0371-2.07446-1.02138-2.91819-5.43176-4.65607-5.25278-7.88346.28788-10.53431,1.13359-2.94368-3.74295-1.25657-3.01165-4.616,1.02533-4.70959.67749-9.82523,5.064-13.13814,1.80386-1.36235.7604-2.39633.21283-3.86913-1.71579-4.61529-1.22592-5.79341,2.91508-8.9165,3.14624,8.16205,1.08651,17.379,4.59263,25.51575,1.10584-5.32691,2.04494-10.70586.89578-15.59373-1.946-8.277-.54687-16.19327.45864-24.253a3.46209,3.46209,0,0,1,2.245-3.1c2.08141-.72755,1.74036,1.25423,2.4473,2.2385,1.84861,2.57368,3.15432,5.12109,2.45021,8.45255-.31231,1.47769.037,4.12486,1.19858,4.09335,8.53185-.23173,2.78453,4.51794,2.70488,7.25255-.33447.44774-.65173.90965-1.00651,1.34068-1.22414,1.487-5.53924,1.24659-3.68631,3.98092,1.06272,1.56817,3.53749-1.635,5.33392-2.76852a1.73524,1.73524,0,0,0,.34919-.43784c.53575-.203,1.38245-.73108,1.56073-.56053,2.84584,2.72279,1.70283,7.73407-2.0882,8.64259-1.61539.38706-3.30958.74673-3.55321,2.32729-.32795,2.12728,2.393,1.22648,3.19538,2.42762a17.52565,17.52565,0,0,1,.867,1.71054c-1.23746.37411-2.3188.65038-3.362,1.03093-.98887.36073-2.58635.13035-2.557,1.69979a2.50883,2.50883,0,0,0,2.678,2.49027c9.20729-.28582.86037,5.28259,2.47555,7.908,1.62007,2.63336-1.35767,3.18362-3.6941,2.75075-.97422-.18062-2.05719-.33666-2.615.57929-.79948,1.31272.34983,2.04,1.18854,2.81284.845.7786,1.64753,1.60322,2.46861,2.40773-.04546.1365-.14875.2844-.12461.40724a6.044,6.044,0,0,0,.262.79233q.26646,1.65642.53306,3.31284l.219,5.12846c-.691.716-2.24545,1.60937-.87375,2.438,1.13621.68642,2.24219-.69108,2.77482-1.95714l-.006.13062c1.83438.27471,4.53607-.03625,4.1274,2.70134a4.16658,4.16658,0,0,1-4.31651,3.14426c-1.752-.08808-3.43723-.40165-4.7086,1.37042,1.93477.95107,3.8277,1.83806,5.67914,2.80442,1.71069.89287,3.09562,2.68122,2.03312,4.192-2.60937,3.7106-.46325,3.51009,2.31476,3.71556a24.38689,24.38689,0,0,1,5.43672,1.577c1.54671.49993,4.12683.20221,3.90452,2.50649-.25184,2.61149-2.92089,1.7691-4.67491,2.018-3.66719.52052-7.48059-.7049-12.10332.71112,4.1604,2.61694,5.90507,8.82248,11.75378,3.48014,1.488-1.35916,2.78148,1.16637,3.326,2.8634.67806,2.11319-.75424,2.15638-2.189,2.25932-3.55816.25509-7.0684,1.42579-10.684.55225a4.73437,4.73437,0,0,0-5.05624,1.84712c-.98809,1.17033-2.59088,2.31879-1.66176,3.925.83594,1.44526,2.4182.51345,3.64319.02733,1.5167-.60195,3.06242-1.06456,3.96945.77675a2.97247,2.97247,0,0,1-.3928,3.258c-.87057,1.03731-2.11277.71113-3.24509.61314-2.55343-.22118-2.556,1.50834-2.83557,3.33224-.25573,1.66863-.27591,3.048,1.2621,4.056,1.8707,1.2262,2.7841-.36781,3.87-1.35314,1.42706-1.295,2.7448-2.71677,4.22433-3.94594,2.01194-1.67168,3.84887-1.53857,5.24109.86547-.2786.38692-.5538.78-.8295,1.17309-1.32673-.02577-2.71747-.14315-3.49012,1.25736-.36555.66255.1879,1.07234.73024,1.19263,1.89349.42014,2.90325-.34472,2.883-2.33472,6.32293-1.55656,7.82143.14748,6.29893,7.16291-2.63917-2.15631-5.8684-1.38167-8.75126-1.33119-4.1257.07221-1.24879,2.93278-1.20914,4.57337.02542,1.05012.57675,3.83167,1.56668,2.06229,2.07369-3.70692,6.337-2.59853,8.53957-5.24761,3.92073-2.89236,3.515-5.10191-1.64527-8.95921,2.25975-2.0273,1.52229-4.0978.08921-6.17843.82447-1.37941,3.04946-1.43329,3.2346-3.41776,1.64081-3.948-.62319-8.35237,2.07447-12.42589,2.67945-4.04591,4.65862-8.60272.12772-13.48224-.72011-.77555-4.89835-8.01465,2.77128-8.89909.14033-.01622,2.59946-1.76351-.17494-2.73631-4.74812-1.66495-1.74064-4.49281-.64627-6.79164.26861-.56428,2.39158-1.07751,1.62587-1.69143-4.30313-3.45083.13126-5.137,1.30039-7.39783,1.588-3.07113,1.78971-6.87915,4.959-9.82425,1.13487,3.71336,3.08479,6.54879,2.58919,10.17811-.16561,1.21268-.38353,2.91083,1.322,3.46563,5.84113,1.89973,2.6442,6.93933,3.80455,10.76632,4.46314-1.54289,7.55119-3.0809,3.48127-8.49206-1.7332-2.30435-.575-6.2054-3.33238-8.53659-.64188-.54262-.06846-1.71515.69619-2.50875,4.56644-4.73941,4.60261-4.90027-1.90561-7.5177-3.33457-1.34111-2.4856-2.91027-.66651-4.577,3.50577-3.212,7.7849-3.83379,12.27621-2.95352,2.8634.56123,4.265-1.10882,4.1638-3.276-.082-1.7572-.5999-4.63405-3.8-3.86883-3.72072.88947-4.67462-.53214-3.63166-3.94757a1.60641,1.60641,0,0,0-1.2371-2.21635c-3.17393-.37149-2.24346-2.6893-2.77985-4.652-.86257-3.15594.407-6.0655.15343-9.0802q1.95717-.9797,3.91436-1.95934c.84246.23365,1.91573.74178,2.14477-.56683.12553-.71679-.5696-1.262-1.44753-.68825l.11739.09367c.60492-2.5215-.53107-5.578,2.8006-7.26353,1.07058-.54162-.20561-1.9495-.85613-2.82148,5.99506-.24008,3.8093-3.75315,2.72987-6.82349.169-4.67158-1.16588-9.412.64245-14.00553.0155-.48839.03058-.97981.04559-1.47117l1.35874-2.843q1.142.0651,2.28389.13028a1.64279,1.64279,0,0,1,.67148.39634c.74963,4.17293-2.39845,8.86886,1.69008,12.59369-1.29133,3.662,2.14548,5.24181,3.23758,9.1556.8438-2.87451,1.29969-4.42767,1.75565-5.98075.64251.40448,1.3067.77866,1.923,1.21982,1.19023.85223,2.91628,3.44092,3.47681.34912.30643-1.69072-2.72215-3.27715-5.2736-3.09569q-1.723-.45751-3.446-.915c-.63169-2.53368,3.53855-4.707,1.95325-5.98854-2.65977-2.15015-1.69894-5.30631-3.48333-7.416,2.24672-.73165,3.575-4.342,6.75241-2.15433l.26515-.00821.00369-.27655-.144-2.43908q-.4744-1.72037-.94895-3.44078c4.29216-.81768,7.74823-2.40772,7.152-7.74153-4.31248.52782-7.92375-4.29212-12.6715-1.45606a15.2811,15.2811,0,0,0-3.71768-12.085c-3.52432-3.86944,2.72675-7.57289-1.25679-10.38687,1.82164-1.95346,4.28034-.909,6.54631-1.25448-.04148-3.339-2.34428-5.51839-3.65431-8.1343q.04546-1.5206.091-3.04121l.13828-.08974a30.995,30.995,0,0,0,3.44573.1885c2.2589-.1154,4.59993-1.03362,5.10091-3.13548.57214-2.40061-1.78828-3.94537-3.55724-5.18637a50.41813,50.41813,0,0,0-6.11584-3.21082c.3545-1.4627-1.64131-3.529-.15555-4.18776,3.953-1.75267,2.30046-4.80386,2.39172-7.50028.86271-.6897,1.63012-1.692,2.61184-1.99127,1.27562-.38884,2.68668,2.35409,3.92987.39921,1.56434-2.46-2.15213-2.66214-2.35427-4.42179-.1661-1.446-2.74509-2.14034-1.35116-3.78834.48512-.57363,2.04635-.23707,3.11615-.31623l.01954-.12652c1.43471,1.6823,2.00444,5.52469,4.89743,3.99285,2.4415-1.29279-.65172-2.9542-1.399-4.41858a19.231,19.231,0,0,1,3.7819-7.73084c1.61942-1.892.515-3.35723-1.13614-3.18568-6.44394.66939-5.88815-3.125-5.09235-7.2774,1.54247-3.70554,4.49061-8.948,3.85779-11.01012-1.588-5.17469.41178-7.87847,3.13131-11.112.561-.667.42622-2.15111,1.75982-1.82953,1.21615.29326,1.69313,1.46073,1.95637,2.64037,1.87034,8.38034,3.05668,16.92681,6.29171,24.977a6.772,6.772,0,0,1,.059,3.96984c-1.76386,6.70957.76366,11.03394,6.6317,14.49277,2.59208,1.52785,3.38066.64928,3.411-1.19834.07207-4.38745.24716-8.98465-.96913-13.098-.66779-2.25809-1.36057-3.86661.20087-5.60654,2.38343-2.656,1.97534-5.6231,1.51924-8.74028-.34629-2.366-1.94447-4.591,1.62339-6.83993,1.64782-1.03861,2.50033-5.84984-.19152-8.93633-3.19948-3.6684-1.01832-13.21323,3.28049-15.21484,1.47131-.6851,3.27425-.35747,3.63215.70146,1.38352,4.09374,7.1581,6.418,4.19919,12.5414-1.03015,2.13185-1.37955,7.12309.17594,8.96827,3.52864,4.18584,2.57531,9.34595,1.44929,12.45853-1.9107,5.28152,1.92069,2.72494,3.16565,3.59912-1.26627,1.104-.75091,2.18884.035,3.27082,2.86835,7.03816,2.65517,14.41989,2.43094,21.80285a3.80576,3.80576,0,0,0,.40094,4.63465c-3.71194,1.50764-4.72722,2.64254-.28369,5.10637,1.83487,1.01744,5.161.401,5.63623,3.63619-2.64214,2.87865-5.19854,5.76647-1.00466,9.37749l.06507.09937c-.53575,3.04206,2.55527,3.76051,3.6776,5.74024q-1.18011,2.96531-2.36014,5.93056c3.31659-2.157,7.81053,1.74563,10.08252-2.446.63141-.441,1.26444-.87974,1.89393-1.32348,1.996-1.40731,6.04737.21789,6.15-3.896.09651-3.87387-2.8321-5.24839-5.70463-7.14376-2.52808-1.66811-6.67786-2.90181-5.86882-7.50089,2.31937-3.28852-1.97675-3.489-2.53743-5.43456a9.189,9.189,0,0,1,4.29294-6.355,4.31939,4.31939,0,0,0,1.66892-5.50352c-.85181-2.23844-2.46578-2.65956-4.56906-2.00614q-1.23831-.66881-2.47668-1.33757c1.35123-1.656,2.6318-3.34275,2.47186-5.65879l.44584-.20157c1.0424-.38406,1.20432-1.18793,1.02689-2.15362q.41579-1.51861.8317-3.03724c2.06766-1.15317,2.12954-2.57694.56931-4.21959l-.73449-1.05433c-.22529-2.41045.07767-4.93517-1.52484-7.04761q-.546-1.62675-1.0921-3.25348c.64408.382,1.35959.57023,1.80046-.15346.16823-.27612-.1714-.86164-.27959-1.30613q-.30574-1.0506-.61165-2.10123c.96877-.7855,1.07936-1.55606-.04007-2.30527-.33588-.49083-.67176-.98169-1.00353-1.46781,6.08759-1.03663,10.5222,2.417,10.98552,8.69151.20546,2.78289-.60655,6.0256,3.72086,6.32778q.38955.72669.777,1.4505c-1.22457,4.2616,1.45361,8.54328-.03979,12.81444-.01954.056.27825.223.42792.33822a6.04106,6.04106,0,0,0,2.83812,5.31055q.90388.9283,1.80762,1.85668c-2.14923,6.55892,2.53651,11.20462,4.63759,16.57351-5.6344,2.33862.26975,6.16271-1.16588,9.04168q-.00784,1.08453-.01557,2.16909a38.9686,38.9686,0,0,0,3.40736,9.09033c2.80392,4.95888,4.97248-2.513,8.45283-1.34348,3.15078,1.05868,3.802-1.90143,3.51944-4.35128a16.02943,16.02943,0,0,0-2.91409-7.4401q-.06075-2.24244-.12143-4.48487c.9476-.81269,4.574-.56453,1.39478-3.04323-1.9946-1.55511-1.27788-3.33189-1.11171-5.159-.47189-2.91813-.00539-6.3023-4.80263-6.22049-1.851.03151-1.774-2.696-2.65178-4.11873-2.43377-3.03466-5.96808-5.99109,1.38126-7.62227,2.13768-.47447,1.60158-4.71133.2238-4.87184-4.81587-.561-3.56935-5.54377-6.29688-7.46643-.9413-.66358-.57724-1.90083.619-2.81649,5.9501-4.55441,6.26027-6.66278,1.28964-12.05681a10.58677,10.58677,0,0,1-3.00408-6.6089,10.51336,10.51336,0,0,0,2.3983-7.74532l.13913-.08776a15.504,15.504,0,0,0,1.99835-1.94585c.92607-1.28082.26189-4.01515,2.605-3.85468,2.2194.152,2.51747,2.63474,3.20062,4.3454,2.34613,5.87476,4.40275,11.836,4.39956,18.2832,2.75161,2.56111,1.41928,7.07473,3.95281,9.36482,3.72235,3.36477,4.37068,8.97913,3.09959,11.44116-3.10051,6.00582,5.98189,11.76451-.59912,16.96865-.05855.04626.02783.4277.14939.52753,2.83607,2.32991,1.70531,5.16853,1.22266,8.03649-.19194,1.14039-.521,2.7898,1.21523,3.469,1.089.7856,1.74892,2.62094,3.61983,1.47,1.16594,2.43658,1.5603,4.18146,1.33693,5.91488.8991-4.76429.8991-4.76429-1.507-8.95474,2.05174-1.41942,3.985-2.83536-.119-4.075,1.32079-8.75328-2.348-17.56911.33566-26.33138a2.88315,2.88315,0,0,0-.78723-3.208c-2.37253-1.85349-1.77292-4.332-1.746-6.87355.05891-5.5659,1.75041-12.507-.88784-16.41116-5.06749-7.49908-1.17317-16.02314-5.00045-23.248a3.78611,3.78611,0,0,1,1.86065-5.00225c1.8794-.88349,3.23857.56988,4.47971,1.82393,4.79222,4.84218,6.9978,10.49126,4.89573,17.44248,6.928-1.59641,8.448-.27017,8.37438,5.8622-.0172,1.431-2.12253,3.309.35273,4.58818,1.71374,3.13683.21035,7.52651,3.91175,9.92205.70093.45366.7468,1.21225-.06953,1.89407-6.09871,5.094-6.34389,12.11652-6.35727,19.24814-.00425,2.26025.28426,4.2655,2.46294,5.44274,3.8248,2.06668,7.16653,4.67448,12.23041,4.1622,6.45208-.65267,9.96868,3.38892,8.71969,8.55493-8.646-6.99476-12.59518-5.71107-15.7388,4.8392-1.30642,4.38441.55139,4.76652,4.00109,3.82562,1.40094.9603,2.77419,1.985,4.59363,1.96889.80911,3.359,4.017,5.1612,5.3594,8.09583,2.05627,4.49538,5.55192,4.63256,9.64314,3.98884,3.565-.56085,6.65145-1.40539,5.647-6.7066l1.57914-.17269q1.66949,2.32305,3.339,4.64606l.00808-.008c1.50373-5.71621,5.02034-11.728-2.36956-16.13836,1.43746-1.2102,5.33717,2.39536,4.89077-2.49955q3.01007.09849,6.01906.19548,2.13166.58889,4.26221,1.17766-.02326,2.81428-.04418,5.62877c-2.72909.7512-1.6932,2.53474-.968,4.01416,5.12258,10.451,14.487,15.86171,24.64618,20.0421,2.01739.83011,4.41513,3.447,6.22969,2.116,3.48856-2.559,5.075-.40162,6.82023,1.72637,1.53921,1.87671,3.352,2.66243,5.5648,1.91268a2.10527,2.10527,0,0,0,.93521-2.97682c-.98477-1.66771-2.599-3.42329-4.617-3.06433-2.75783.49048-3.8192-1.09454-4.79682-2.89844-2.36015-4.35527-5.01956-7.81127-10.66982-4.84978-.05877.03083-.27336-.23541-.64493-.56963.46828-2.61343,2.5169-3.41072,4.83018-3.78834,2.14554-.35025,2.687-2.03478,3.17952-3.6856.75-2.513-2.33976-1.41163-2.805-2.83462a4.84931,4.84931,0,0,0-3.05951-2.33784l-1.57936-.08581q-.62838-1.28594-1.25685-2.57191c-3.19814-3.25953-6.77564-.48941-10.1694-.63986q-.60067-1.8272-1.20142-3.65438c9.25359-5.86889-3.14348-6.11733-2.074-10.80353.28151-.69958,2.99247,1.32875,3.23149-.61714a3.38677,3.38677,0,0,0-2.38188-3.55536c-3.28976-.54552-1.55556-4.06861-3.53246-5.22276q-1.433-1.71606-2.86587-3.43218.12372-1.08633.2473-2.17266,4.28235.418,8.56463.83608c2.93908,1.42707,5.814,3.0626,9.25827,2.84666.89046,2.55534-4.26936,5.14877.04835,7.68252a6.2145,6.2145,0,0,1,4.64616,2.44517c.38063.98222.87333,1.84344,2.08374,1.92968l1.37226-.20571c2.95494,1.26921,6.22728,1.58133,8.898,3.83018,1.50912,1.27077,5.69479.78532,4.43737-1.30086-2.76888-4.59334,1.05245-8.78354-.71431-12.89884,1.36242.085,2.5809,2.36878,3.89737.75757,1.33169-1.62966-.76486-1.97587-1.65313-2.70073-.14755-2.60777-.89407-4.731-4.00067-4.94452l-.08673-.42693c.23124-2.41568-.4425-4.04842-3.23078-4.31152-2.25862-.21307-4.781-.18287-6.67474-1.20687-4.71364-2.54882-12.5602-.08984-13.76792-8.35778q.70772-.26567,1.41545-.53136c4.35679,1.02417,8.71451,1.71334,13.02486-.18008,4.00641-1.75993,7.93309-4.26118,8.52335-8.67338,1.07278-8.01946-1.23483-11.37694-7.90582-13.99268a26.30408,26.30408,0,0,1-3.75974-1.49085c-2.31448-1.35637-3.38767-10.2791-1.53906-13.44471,2.13457-3.65548,3.78826,1.26683,5.81649.46834l1.65731.10992c4.24521-.12673,9.41834,2.94726,11.81636-3.5005,2.09238-5.62586-2.29182-12.61255-7.868-14.66631-6.0621-2.2327-12.15876-5.33476-14.3414-12.29933-2.23837-7.14221-4.1017-8.01369-10.65984-4.32586-1.83176-1.10311-4.42979-.88253-5.55071-3.21347,3.525-5.24768,8.81512-4.80811,13.81932-3.68536,10.6209,2.383,21.13028,1.48643,31.685-.09384l3.02178-.17226q4.92827.69853,9.85646,1.39715l2.5969-.42385c1.656-.46276,3.35135-.82005,4.95627-1.41959,1.45481-.5434,2.98687-1.3215,2.5341-3.29486a3.26241,3.26241,0,0,0-3.49622-2.45328,16.73565,16.73565,0,0,0-3.37294.64337q-1.09165-.06362-2.18393-.12741-1.09078-.39528-2.18158-.79053l-1.05139-3.389c.71487-.23984,1.66545-.26954,2.10129-.75831,1.41737-1.58948,5.51673-1.71129,3.60674-5.14927-1.29785-2.33625-2.65517-5.83607-6.82109-3.30923-.905.549-2.54819-.11916-3.85135-.22667l.01657.01629q-1.2638-1.139-2.52745-2.278l.05692-2.44772a11.66973,11.66973,0,0,0-1.07567-5.67769c-.14819-2.02614-.79722-3.52379-3.269-3.09825-1.61156-.07547-2.27058.91967-2.58607,2.30092a2.205,2.205,0,0,0-2.42471,2.00253,5.48111,5.48111,0,0,0-3.39688,3.80746,1.97671,1.97671,0,0,0-2.15808,2.33529q-.04769.642-.0953,1.284c-2.02.72982-3.19318,1.92037-6.26034.41776-5.0818-2.48967-6.99675-7.8768-11.77927-10.16434,2.19008-.99446,4.03685.0953,6.01877.82582,1.19533.4406,3.09761,2.16708,3.75238-.27063.5315-1.97849-.384-3.456-3.085-3.61392-6.528-.38158-10.52446-4.1685-11.4608-10.51239-.3584-2.42819-1.42189-2.76828-3.2111-2.99258q-.2465-.76916-.49292-1.53828c6.63142-3.05453,13.894-3.64309,20.80722-5.3443,1.31031,2.99757.72769,7.693,5.43623,7.751,5.02487.06188,10.65226.55271,13.36138-5.47485q2.142.12767,4.28741.25319c2.59379,2.156-1.4951,5.0773,1.17253,7.56736,1.83608-.63614,2.94524-3.1192,5.482-2.59042-1.36072-3.55339-3.82515-4.59416-6.82859-4.79661.519-1.97411,2.37813-3.46581,2.05606-6.30488-1.66333.8689-5.75469-.25241-4.42463,1.837,2.23547,3.51161-2.495,2.39267-1.67783,4.10577-1.457.30459-2.914.60921-4.44488.92926-.50233-1.60311,1.66941-2.73861.506-4.25021-1.10138-4.26826-4.24494-4.96915-8.00956-4.58509-5.71015.61551-9.84166-2.44348-12.8252-6.58245-2.50692-3.47763,2.77227-4.74645,3.29882-7.56337a5.53366,5.53366,0,0,0-.21963-1.68608c.14946-2.37555-1.39612-3.81022-2.94722-5.20868a9.60772,9.60772,0,0,1-3.51547-6.85071l.02527-.03233,6.521-.71331c3.31029,1.84092,5.79448,1.35686,7.07547-2.51386q-1.57453-3.54234-3.14921-7.08468-.30959-1.84365-.61894-3.6873.47407-.53372.94823-1.06739-.76815.05266-1.53631.10542-1.17723-.27332-2.35448-.54658a16.85571,16.85571,0,0,0-6.95624-.59838l-.15145.01749q-.02325-.72481-.04644-1.44968c.3911-4.48229,3.46435-5.50157,7.25333-5.69946,1.47379-.077,3.56942.0816,3.53317-1.96072-.03038-1.71193-2.04544-1.19339-3.2744-1.52261-4.00237-1.072-8.50551-.44774-11.93085-3.48708q.55979-2.28531,1.11964-4.57063l.06316-.067q1.59216.03542,3.1849.06966c1.47152,3.76678,5.21611.39826,7.27606,2.31785,3.054,3.21357,5.906.83718,8.74637-.38153,1.26861-.54434,2.40029-1.68434,1.96968-3.09185-.882-2.8831-3.71074-2.77718-6.02826-3.37492q-2.37329-.06224-4.74628-.12441c-2.2436-2.29062-5.49612-2.75982-8.064-4.46537q-1.76189.743-3.52383,1.486a9.25837,9.25837,0,0,1,2.449-12.74363c2.79253-2.05646,7.96983-1.142,11.60092,1.72821,2.22584,1.75938,4.64666,3.35376,7.77633,2.64685,1.24185,1.17084,2.08891,3.9435,4.36431,1.71832,1.67812-1.64113,1.798-3.7806-.42148-5.36327a16.75793,16.75793,0,0,0-2.55138-1.25037c-4.606-3.631-10.22951-4.70539-15.68435-6.1604-1.38366-.36906-2.68456-.61136-2.86276-2.2872-.20263-1.90562,1.07482-2.66811,2.61616-3.28037,2.23419-.88749,5.15054-1.66159,6.65959-.29542,3.31886,3.00461,4.42427.16408,6.28265-1.09175-.37907-1.31643-1.4335-1.07783-1.83551-1.44949-2.49453-2.30587-8.11646-1.79108-6.92927-7.4721.86993-.36085,1.746-.70756,2.60766-1.08725,1.306-.57543,3.44977-.6751,2.94248-2.69875-.45362-1.81-2.411-1.37024-3.896-1.34544l.10805-.23758c-.61986-1.82368-2.08155-2.50477-3.818-2.81288a10.66494,10.66494,0,0,1-.97344-6.78354l3.15552-1.47744c1.47075.27255,3.11488,1.10478,4.37974.71286,3.825-1.1852,4.39489,1.30626,5.09058,3.89141.49319,3.89811,6.37164,3.03227,6.39812,5.812.07215,7.55662,4.07409,3.75874,7.23379,3.19931,2.25826-.39983,4.58215-.42827,6.87681-.62243,1.45651,4.96958-.89641,9.3695-2.01591,13.97008-.32859,1.35052-2.38153,3.52333.59437,4.02008a3.14873,3.14873,0,0,0,3.81036-3.33177c-.28569-3.09412,1.574-5.9315.71862-9.03-.95729-3.468,1.00212-4.93052,4.00726-5.60794l2.22364,2.442q-.18989,1.1947-.37985,2.3894c-.16093,4.71446,2.83635,6.46119,6.50673,5.0066,4.03133-1.59765,2.99679,1.267,3.63081,2.89459,1.66311,3.29746,4.40685.77488,6.59856,1.22521a10.65638,10.65638,0,0,0-.54545,10.68212c1.116,2.47926,2.4575,6.82684-2.584,7.73652-2.8057.50625-3.35285,2.09744-3.452,4.37574-.10365,2.3839.83064,4.113,3.22087,4.79215,2.25713.64133,4.36869,1.46664,5.69458,3.57089a9.63214,9.63214,0,0,1-.94724.30262c-1.86376.86915-1.63968,1.95546-.32817,3.1549,7.46092,6.20948,10.89362,5.54359,14.81358-2.87379a5.733,5.733,0,0,1,.24341-.51939c.78738-1.32378,1.68761-3.06723,3.30838-2.72935,2.12.442,1.13133,2.5082,1.04375,3.88774-.11265,1.77326-.44137,3.53975,1.652,4.36154a2.3378,2.3378,0,0,0,2.655-.53607c1.3239-1.454.55862-3.28723.76585-4.947l-.0645.04959a15.4222,15.4222,0,0,1,3.75237,1.47367c2.45233,1.80144,4.05278.019,5.57819-1.24316,1.80655-1.4948.83636-2.95223-.52251-4.38418-3.05244-3.2166-.74377-7.376.92055-8.82962,2.31731-2.02389,3.36063,2.16865,5.057,3.65412,3.57558,3.13092-.10117,8.41883,3.80441,11.47286.68493.53563-1.23972,2.08227-2.32566,2.88439-1.31392.97047-3.48128.68521-4.28515,3.23181,4.68836,1.056,10.35879-1.05274,10.9618-3.68486,1.10577-4.82641,3.14349-7.18151,7.23181-9.08137,1.09479-.50876,1.7914-3.0039,3.42435-2.07857,1.89852,1.07589.62779,2.94965.17636,4.62161-.50608,1.87459-2.256,4.24861-.521,5.73978,2.11751,1.82,4.25824.31262,5.95456-1.60511.71983-.81385,1.86029-1.78156,2.95975-.7476.89457.84117.6496,2.16341.21177,3.27385-1.01344,2.57017-2.07482,5.12144-3.45692,8.51584,3.88484-1.20853,6.46935-2.45466,8.54431-4.89074a4.67011,4.67011,0,0,1,5.36925-.88642c1.65164.80256-.48725,2.82555-.25687,4.04856.84423,4.4818-4.61869,5.47326-4.74259,9.26191-.58092,1.38189-.727,2.65822.853,3.51583,1.56406.54821,2.96967,1.752,4.80879,1.16265q.76211-.271,1.5242-.54191l.17757,4.07569c-1.17289,1.32744-.91468,2.462.46445,3.44541q-1.33676,1.14829-2.67365,2.29649c-2.36432,1.35393-3.106,3.74668-3.90636,6.10179-.14932,2.22428-3.30081,4.70107.55408,6.58862q1.1318,1.15425,2.26343,2.30849.04271.99755.08525,1.9951c-.97217,2.47863-3.0656,4.723-2.61205,7.50612.706,4.33187-1.32773,4.59338-4.61154,3.74125-1.33722-.347-4.02963-1.37268-3.5593.73474.98066,4.39361.36505,8.8244,1.23512,13.14431.19314.95857.66071,1.98012,1.78942,1.94815,1.3324-.0377,1.02987-1.23264,1.24255-2.14349,1.01571-4.34915,3.83918-6.98468,8.22245-7.53972,4.63087-.58634,6.95391-2.85961,6.63205-7.605-.73484-6.4251,4.13371-11.17116,5.34256-17.20565.79417-3.96449,1.49319-5.7001-4.06694-7.52056,5.86556-1.199,5.9467-3.43614,3.66394-6.89352-.93117-1.41039-1.8993-4.60258.69533-5.3587a4.32091,4.32091,0,0,1,5.35736,3.32587c.71424,4.7,3.19262,4.41425,6.863,2.03658-.55586,4.36243-.85825,7.8277,4.11367,8.50176,3.43688.466-.73888,2.87628.97769,4.11512,1.98518.19937,4.16988-1.0543,6.46489.4481,2.46889,1.61617,4.5493-.46283,4.76992-2.437.71707-6.418,6.60762-9.20275,9.35674-14.17969,1.44512-2.61627,8.94427-2.01655,11.0714.529,2.49807,2.98964,3.19284,6.1961-.46962,8.99875-.96388.73757-2.24445,1.893-1.05634,2.75726,5.96709,4.34105-.64217,4.83871-2.0858,5.86673-5.18346,3.69149-9.56773,9.0705-11.19417,14.95954-.08113.2941-.53334.55734-.87.697-1.582.65646-2.8578,1.46915-1.75309,3.43932a4.01268,4.01268,0,0,0,4.8689,2.19182,15.10236,15.10236,0,0,1,6.75234-.4007c4.11607.65282,9.942-7.18546,8.38451-10.92615-1.31767-3.16465-2.09606-5.59277,2.9805-3.97854,1.67061.53121,4.78479.23619,4.63164-.97571-.53143-4.20472,2.89908-6.91493,3.35355-9.67779.57087-3.47133,1.48944-6.08193,3.64872-8.37457,2.048-2.1745,1.29452-8.31233,6.61945-5.89041,4.35128,1.97906.93131,6.65308,1.97973,9.93972a.69717.69717,0,0,1-.18989.532c-1.3227,1.502-.75148,2.65836.95921,2.74,4.66493.22263,2.83742,4.63087,4.0634,6.81971,1.15774,2.067-3.11311,1.52388-4.56467,2.92449-1.48809,1.43577-3.56963,1.19169-5.50858,1.27474-2.22895.09544-2.58409,2.13641-3.23333,3.63987-.67048,1.55266.30841,2.74533,1.78843,3.0325,6.61888,1.2844,13.40825,4.6936,19.48551-1.63546,1.07418-1.11859,4.3415-2.31,4.31686-.85029-.05367,3.18292,5.86528,3.19779,3.0964,7.38654-2.13747,3.23344-2.3588,8.14737.1872,10.28481,2.64908,2.22389,2.87394,4.02233,2.787,6.764-.03951,1.24768-.23421,2.916,1.355,3.52722,1.67075.64259,2.251-.93946,3.20345-1.84117,3.33854-3.16048,6.74321-6.25143,10.156-9.33179a11.45081,11.45081,0,0,1,1.85328-1.13282c1.003,5.13051,5.42574,1.8736,7.96353,3.24409,1.28616.69463,3.5001.252,3.73007,2.16757.23151,1.92833-1.93173,2.61074-3.14795,2.85235-7.02174,1.39481-6.11988,4.7342-2.658,9.11872.92267,1.1686,2.23461,3.2642,1.79253,4.0674-2.178,3.958,1.84663,4.12825,3.17329,5.89951-1.82821,1.12109-5.50235-.43309-5.28273,3.64925l-.36958,2.62447c-1.85356-.181-2.37267,1.47277-3.37847,2.45725a5.86344,5.86344,0,0,0-1.30981,3.96339c-1.28475.55834-3.19269.09884-3.801,3.42152,6.21121-3.88887,8.35237,3.26725,13.092,3.756q-.01338,2.55882-.02619,5.11741-1.23662.01455-2.47392.02946c-1.72145-2.58657-4.36119-2.33717-6.94839-2.25009-1.89138,4.97811-7.13375,4.93294-11.04138,7.09835,3.43723.73165,6.476,2.90421,9.95388,1.23207l3.44148.48885c-1.02647,3.22915-4.16535,3.60878-6.63729,4.8433-1.07645.53759-2.27228.94045-1.83119,2.38039.42381,1.38349,1.87721.99228,2.93427,1.24553a8.75153,8.75153,0,0,0,2.63973,4.42438c1.0344,2.48171,1.87141,5.13684,5.04286,5.74166,1.79848-.82264,2.7996-2.44829,3.91288-3.94382.5259-.70648,1.49687-1.64941.533-2.39689-1.0293-.79817-2.06865.27142-3.04075.76157l-1.15773-.25509c-.00411-3.3218,1.375-5.49029,4.8963-5.87282q1.02886.039,2.05789.07791c2.0545.65017,3.40977.45444,2.75458-2.24088a5.47888,5.47888,0,0,0-4.98948-4.50919l-.14783-.14072q-.48045-.51507-.96091-1.03012-.18924-.66407-.37779-1.32549.35132-.5532.70135-1.11161c5.63787-1.04792,12.06262-.58641,14.54277-7.68185.13763-.39376.983-.54017,1.49885-.80171,1.913.46258,2.51994-1.0926,3.41147-2.20824q1.49913.73857,2.99813,1.47711c-.74809,2.05539-.78037,4.2227,1.854,4.36625,2.95395.161,1.95609-2.64179,2.339-4.33371q1.88527.04911,3.7717.0999c2.122,4.52321-.15421,8.48239-1.60364,12.54731-.239,1.68085-2.4187,2.40344-2.14229,4.33881-.07788,6.00412,1.86631,10.53371,8.3957,11.97008a4.33842,4.33842,0,0,1,2.71535,1.89813c2.16863,4.458,4.65289,2.98581,7.20426.56085,2.65588-2.52436,5.82846-4.84557,9.24942-2.71039,5.71858,3.56892,10.14093.33616,14.93061-1.70687,6.71347-4.76114,7.01366-5.7834,2.76817-9.42971-3.58621-3.08011-4.09-3.92951-4.17952-7.047-.97152-3.46134-3.801-2.27794-6.1009-2.45838-2.16268-.16971-5.078.60347-5.69111-2.3172-.51543-2.45477,1.527-4.04425,3.60574-5.21207a16.29558,16.29558,0,0,0,1.79891-1.3523q1.75806-.44456,3.51682-.88664.5172.48009,1.03171.9568a5.50061,5.50061,0,0,0,4.55489,1.53535c1.46685-.20769,3.324.9378,4.35227-.44693,1.47988-1.99311-1.48455-2.12561-1.85682-3.42321-.26182-.91206-.41943-1.854-.62362-2.78262.3458-2.64964.9949-4.953,4.3864-5.05751,1.68081-.05172,2.78445-1.26269,3.56765-2.66069,2.31674-4.13427,5.96157-5.77278,10.549-5.94543,3.625-.1365,6.21532-1.81062,8.18287-6.04713-3.05349.50319-4.92688.81188-6.80027,1.1206q.07158-2.34247.143-4.68492c1.43286-2.88056.10705-3.31486-2.48327-2.98468-3.8088.48548-6.05587,3.08469-8.21827,5.79395-2.05606,2.57605-4.16691,4.22723-7.8351,2.88442-3.66026-1.34-6.29787.3801-7.81527,3.87447l.085,3.20515q-3.01761,2.38915-6.03549,4.77675c-.74723-.9032.58354-2.59538-1.18237-3.10946-3.06893-1.868-2.00763,1.78864-3.2271,2.48019-1.08325.61433-2.02306,1.05252-3.19325.55762-.97989-.41447-1.82808-1.29855-.98456-2.17907,3.07856-3.21347-.6314-3.80565-1.98115-4.98915-2.3452-2.05623-4.21817-.68766-5.73075,1.4238q-1.7434-.16557-3.4868-.33117-1.11787-.46807-2.23589-.9362-.16589-2.34854-.33191-4.697c-.72883-3.45674-1.043-7.09537-5.04909-8.75282a2.92442,2.92442,0,0,1-1.2679-2.42485c.5589-4.625-2.645-4.41355-5.55036-4.40845-1.99092.00347-4.84263.09707-4.862-1.88178-.032-3.27995-2.10023-6.014-1.72924-9.23667,1.62389-1.233,3.168-2.59442,4.89276-3.665,1.95693-1.21456,2.40935-2.70059,1.47521-4.72018q-.00065-.84341-.00114-1.6868.90782-2.215,1.81548-4.43l1.42168.301q1.62721,2.44071,3.25457,4.88143.44562,1.0996.89138,2.19925a1.84581,1.84581,0,0,0,.24539.82769,2.99008,2.99008,0,0,0,.04574,3.07506c.70787,1.46564,1.79749,3.10815,3.4034,1.74063,2.22144-1.89169,4.31729-2.902,7.23654-2.04632a2.41612,2.41612,0,0,0,2.80527-1.54625c2.37041-5.405,6.96991-4.39411,11.31382-3.96559,2.76633.27291,5.5076.79726,9.38875,1.37765-2.397-4.58032-4.71986-7.62433-8.29785-9.6516a3.2131,3.2131,0,0,1,.31238-.80292c-.29751-.94777-.75332-1.29087-1.532-.40109q-.71622.3193-1.43258.63863-.237-1.15154-.47423-2.30315.06819-1.82889.13651-3.65757c-2.57772-3.44948-11.51462-3.86158-14.72274-.67891q-1.26741.09612-2.53212.1923-.53482-2.87928-1.0749-5.75855l.1433-.112a5.02087,5.02087,0,0,0,5.797-1.28242q1.68032-.04338,3.36077-.08673c4.78415-.44541,8.4328-4.40023,13.426-4.31754a1.72542,1.72542,0,0,0,1.59146-2.0524c-.3305-2.10346-2.21337-2.16753-3.60716-1.96593-7.46736,1.08031-15.17813,1.33757-21.78228,5.72559-.526-1.0766-1.45057-2.487-2.50791-1.8336-3.80894,2.3536-7.23867-.64641-12.48855.45288,6.04143-5.09571,12.3883-5.12984,17.37154-8.115,4.22313.97865,8.3341-.66722,12.51984-.53334,1.27909.04089,2.44461-.3203,2.60873-1.674.22331-1.8423-1.48441-2.01984-2.68646-2.45193-2.772-.99645-4.54343,1.60894-6.93239,2.0398-.213-2.75425,1.66778-5.5077-.18125-8.28411-4.06623-6.10569-10.69432-7.59417-17.03014-9.63659q-.85746-.34342-1.72074-.68011-.90037-.74493-1.80061-1.48983c-.80472-1.70619-.43811-2.75151,1.4871-3.42062,4.48254-1.558,1.46034-3.0417-.14216-4.50048-.78632-1.55164-1.17034-3.53809-3.5913-3.3233l-2.10378-.11879c-.59005-5.08941,2.41757-6.59615,6.7527-6.781q1.06923.0885,2.13946.17509,1.19922,1.60773,2.39646,3.21924c5.72863-1.69346,6.94782-3.90914,5.03507-9.15018,2.081-2.41351,4.71363-.94406,7.04807-.82165,2.98412.15647,4.74309-.71671,5.18064-3.834-6.26205.01258-6.26672.02051-13.792-4.4316a2.52318,2.52318,0,0,0-3.20926.10248c-2.58508,2.75045-6.4045,2.36638-9.41721,3.97264-1.1845.63159-2.546,1.40091-3.77142.41443-1.50834-1.21445-.03823-2.34452.386-3.53491,1.76053-4.94239.33092-7.05469-4.81219-6.62516a23.87626,23.87626,0,0,1-6.8218-.524c-.67232-1.93759-4.25852-2.83285-2.18024-5.72511,1.53893-2.14164,3.50578-3.56542,6.4-2.6719a5.38064,5.38064,0,0,0,1.71862.14581c1.678-.05016,3.74734.408,4.20528-1.9381a4.315,4.315,0,0,0-1.776-4.58182c-1.25982-.87738-2.56412-1.6912-3.84858-2.53325,1.60519-2.65283,4.2411-3.29738,6.98336-3.09863,1.93272.14008,4.14567,1.13131,4.72963-1.52551a4.80207,4.80207,0,0,0-3.52842-5.8509c-3.97363-1.29661-7.94173-1.56534-11.50173,1.28942-1.41715-.36032-3.30456.24557-4.02885-1.56475-.4299-1.07437.65108-1.61537,1.40256-2.21229,4.69834-3.73188,4.55433-5.14586-.62205-8.02416a11.71349,11.71349,0,0,0-7.21814-1.40569c-2.44574.25982-5.60842.86507-6.67156-1.93186-1.1777-3.09817,2.07475-4.15687,4.10531-5.361,2.33275-1.38329,3.9487-2.84862,1.728-5.37626-4.15927-4.73416-2.46628-9.69689-.80614-14.64165-1.17784-1.05867-2.27865-.335-3.35483-.06084-1.6682.425-3.47221,1.30928-4.90408-.16808-1.75374-1.80956-.04489-3.59346.49178-5.33872a25.53989,25.53989,0,0,1,1.13862-2.65255,20.96235,20.96235,0,0,0,1.87905,1.35021c2.03212,1.15683,4.2513,2.61057,6.19139.16891,1.36759-1.72118,4.78386-2.02734,4.17016-4.99917-.66439-3.21667-3.71548-3.5339-6.35663-4.11884a10.6485,10.6485,0,0,0-1.1491-.131c-6.28428-2.79107-8.14931-9.90917-13.46362-13.72259-2.643-1.89659-4.2775-4.70643-1.93272-7.95808,2.54685-3.53152,6.38694-4.2287,9.656-1.93775,3.81984,2.677,8.148,3.19641,12.27147,4.62119,2.64271.91317,4.6846.74311,6.46411-1.85944,3.3275-4.86624,4.60007-2.11432,5.3912,1.68888-1.15476,2.63418-5.783,4.38335-2.10194,8.24964a18.85079,18.85079,0,0,0,1.18563,3.79844c1.1753,2.11431.05254,6.776,3.43412,6.00318,2.735-.62508-.484-4.23443-.066-6.54107,2.7921-2.50318,2.20346-5.781,2.0528-8.95851,6.59594-1.0772,7.49964-12.191,16.36687-9.29729.07562.02469.23279-.29334.38686-.40141,7.46764-5.23622,7.47259-5.23907,13.02961,2.04642a27.57364,27.57364,0,0,0,2.00238,2.824c4.37082,4.416,8.95772,4.0254,12.01334-1.18208,2.024-3.4496,4.99768-4.59941,8.72011-4.551,1.35272,2.58158,2.57318,4.90293,6.43055,3.915,2.57644-.6599,2.68717,1.3884,1.76634,3.22682a30.48965,30.48965,0,0,1-2.18208,3.28087,9.74089,9.74089,0,0,1-5.26192,2.05291c-2.10731.313-3.9082.904-2.546,3.68355.95566,1.94989,1.69029,3.85853,4.61,2.3834,4.61182-2.33,9.37685-4.36294,11.93616-9.29041,4.28047,2.38509,8.044,2.62558,10.50584-2.53281,4.1662.52182,7.67962.07018,8.84642-4.96717.48229-2.08223,1.73419-4.29807,4.22666-4.00144,3.18122.37863,2.48993,3.275,2.75288,5.487a6.17971,6.17971,0,0,1-1.9861,5.50462c-2.04841,2.20868-5.58859,4.544-3.21139,8.65869l.06783.069c.2791,1.45149.0388,3.33534,2.10774,3.5779,1.88712.22127,2.60221-1.379,3.23871-2.764,2.34039-5.09216,7.18246-7.8353,10.96931-11.5297,2.00281-1.95384,5.39785-1.36047,4.40381,1.87072-1.65674,5.38572-.35387,9.18546,3.26674,12.9022.98187,1.00781.45186,2.56563.24328,3.89006-3.15021,2.17943-6.40719,4.22359-9.40943,6.59067-1.70828,1.34684-4.32281,3.01015-2.88428,5.55589,1.41148,2.4977,4.18574,1.47879,6.18771.4129,4.24464-2.26,7.30961-.92831,9.92867,2.61336,3.27015,4.422,5.87123,4.45144,8.95757-.27419a8.98357,8.98357,0,0,1,7.03194-4.319v605.52c-2.50012-.10911-5.00038-.31344-7.50049-.31365q-331.93454-.02327-663.869-.01678c-6.1831,0-12.36712-.07314-18.54881.01827a4.50391,4.50391,0,0,1-4.52148-2.94673c-.80465-1.84429.65384-2.69921,1.99255-3.57381,1.14038-.74511,2.03722-1.72676.6988-4.13456-.74681,2.96259-4.67951-1.60491-4.72822,2.98057-.06018,5.66994-3.06638,7.785-8.45574,7.68961-8.69412-.15407-17.39228-.08135-26.08874-.10436q-.76846-.97526-1.537-1.95042l-.08156-1.50785.30472-.44187q.64826-.9111,1.29644-1.8222a17.58328,17.58328,0,0,0,.26054-7.90356q.46326-.83909.92657-1.67819l.81223-1.2439c-1.76776-2.60986-4.34667-5.31756,1.78482-6.96389-7.42453-3.93376-2.28085-5.87109,2.32212-9.00714-7.4607,1.25693-5.30532-3.54619-6.28938-6.40669-1.29544,1.75232-2.83273,2.95891-3.14808,4.42781-.83014,3.86622-6.1351,3.763-6.50341,7.80862-.53653.51692-1.07143,1.04028-1.60633,1.56364.01289-1.93053-.68174-3.39207-2.76073-3.6934a1.96366,1.96366,0,0,0-2.23723,1.393c-.66036,2.33869,1.197,2.86573,2.77935,3.53593-.38183,3.96612-.7308,7.93585-1.16708,11.89595-.11859,1.076-1.0031,2.40857.69739,2.78544M912.82157,545.71324a2.21107,2.21107,0,0,0,1.12523-2.367q1.31987-1.00843,2.641-2.01747.62639-.6662,1.25275-1.33244.83348-.49584,1.66694-.99167l-.04142.01413a1.20785,1.20785,0,0,0,.53844.29428c.089,2.31289-.13594,5.20722,2.60214,5.80736,3.00167.65792,2.1801-3.01781,3.60114-4.3758a9.57233,9.57233,0,0,0,1.776-2.95055c1.28843-2.78531.78461-4.8745-2.4563-5.762a2.88827,2.88827,0,0,0-3.10638-.15137q-.60906-1.2467-1.21806-2.49364.34261-.32673.68514-.65338l-.65292.68581c-1.89888-2.8446-4.15573-3.86335-7.89252-3.39242a47.29382,47.29382,0,0,1-16.67939-1.33184c-4.25,6.29635,5.945,9.68159,2.66055,15.82086-.26345.49249,1.0446,1.28967,1.71274.8,3.54337-2.597,5.57146.80175,8.16836,1.93506.47621,1.4923,1.24659,2.64979,3.0261,2.65867l.33935.03491Zm9.89674,19.68825c-.29453,1.74142-1.33212,4.46965,1.24546,4.41882,2.3292-.04588.70206-2.60377.60719-4.08358,1.502-1.0846,3.38491-1.79041,3.86692-3.88916,2.05379-1.31009,2.69022-2.70919,1.40179-5.20916-1.95524-3.79379-5.68927-4.6148-9.026-5.65911-1.77292-.5548-6.81436-.871-2.58713,3.85071,1.08374,1.21048.37984,2.49722-.02776,3.77036-1.39732,4.36465.56393,5.66087,4.61586,5.00682Q922.76639,564.50437,922.71831,565.40149Zm283.51861-213.11138q.20688-1.16465.4139-2.32924c3.23461-.187,7.25694,2.36666,9.11263-2.61874,2.60632-1.04895,8.103,2.68664,7.12086-4.302q-.03951-1.45686-.07916-2.91377c.79821-2.21812,3.706-2.24123,5.24082-4.6206-3.55207-.44381-5.61917-2.6397-8.234-3.80936-1.63875-.733-3.55406-1.49525-4.72935.28635-1.47365,2.23369.81945,2.84824,2.207,3.72791.93571.59331,2.2257.81474,2.40326,2.35618-1.08622,1.85533-4.47305.00478-4.95024,2.9012-2.56243-.70818-3.97235,1.96217-6.23685,2.12767-.40852.12911-1.12955.19523-1.17047.39847-.159.78911.2849,1.28992,1.12573,1.36472.58609,3.33879-1.45935,2.99034-3.22229,1.98865-2.18434-1.2411-4.28359-.69009-6.4566-.46484-1.6321,2.5221-1.35357,5.19568-.62673,7.9048C1201.46453,356.11084,1204.15411,355.4279,1206.23692,352.29011ZM982.666,630.63768q-.28324-.61916-.56655-1.23816-.26263-1.33485-.5252-2.66976c1.77979-6.72126.88225-8.74354-5.28782-9.49162,3.40063,2.7322,2.80293,5.41258,1.37615,8.11788-1.7206.16121-3.45763.22557-5.157.51245-1.49956.25333-3.22221.51182-3.74692,2.24-.50042,1.64824.90654,2.32509,2.05769,3.032,2.78119,1.70821,1.71012,4.38214,1.69525,6.79072-.92862.499-2.538.01281-2.58571,1.78665-2.87459-.58708-3.65184,2.44348-5.56332,3.2077-1.8343.73336-4.39687.5703-2.66218,3.297a4.0575,4.0575,0,0,0,6.46794.816c1.63974-1.50246,2.6534-3.68836,3.94572-5.57011,1.92543.90845,3.8716-.41439,6.0357.28229,1.75607.56527,3.46931-2.18732,5.79816-2.55676.63437-.10068-.50226-2.25557-1.43605-3.20565q.02963-1.45516.06386-2.91062C984.56081,632.33676,984.05168,631.50343,982.666,630.63768ZM1269.325,114.54387c1.06244.02453,2.626.34446,2.67542-1.03309.05834-1.62259-1.63706-1.57346-2.88131-1.71072l-2.00989-.0598a6.53518,6.53518,0,0,0-4.9848.73216c-1.49829,1.09482-2.68533,2.61178.24086,3.62071q.05862,1.44754.11753,2.8951c-.713.62949-1.47067,1.2157-2.13082,1.89643-2.10533,2.171-5.37307,4.9688-3.74932,7.504,1.29041,2.01481,5.07882-.6784,7.7616-1.21953.83828-.16911,1.53171-1.05544,2.29154-1.61344,1.67246-1.09184,2.35781-2.53016,1.574-4.48419q-.27144-1.66988-.54276-3.3398Q1268.50586,116.13776,1269.325,114.54387ZM1065.08721,513.85148q-.85194.84094-1.70382,1.682c-3.33174-.31167-7.19732.44551-7.54425-4.83658-.13176-2.00671-1.77858-1.62722-2.97582-.6331-3.23751,2.68827-5.55284,6.06008-5.39545,10.34509.091,2.47912.60351,4.1199,4.67632,4.60626,7.42283.8865,13.62434-3.28781,20.66909-3.0234,1.6.06,4.53273.56481,4.50094-2.188-.03044-2.64059-1.10222-5.45248-3.93319-6.53155-1.32015-.50315-3.0004-.06135-4.51745-.04786q-1.27462.00234-2.54925.0046Zm294.1941-92.59861.07575-.127c1.5909-.49444,3.55208-.59866,3.75825-2.78516.043-.456-.81874-1.32939-1.38685-1.45545a53.51577,53.51577,0,0,0-8.91608-1.56339c-1.9912-.09519-4.45988.43829-5.198,2.71011-.70291,2.1625,1.31151,3.31468,2.73673,4.53663-.09629,1.79838,1.18563,2.42953,2.54019,2.99916C1357.943,428.45639,1359.24576,425.79293,1359.28131,421.25287ZM782.38769,485.44815a8.74554,8.74554,0,0,0-.7759-.77428c-.40994-.322-.194-1.77763-1.35584-.77123l2.28666,1.45577c-.50623,2.95568-1.70262,6.11864,2.08848,7.9053,1.32227.62322,2.25366-.04022,2.70183-1.30093,1.48334-4.172-2.46047-4.48346-4.45252-6.18059A4.72239,4.72239,0,0,0,782.38769,485.44815ZM31.44152,575.93254c-3.11035,1.21855-3.16228,2.74112-.103,3.88158,1.31915.49171,3.01112-.01657,4.53372-.07052a6.78565,6.78565,0,0,0,5.74359.31641c6.56335,3.6078,11.37184,3.66656,14.61912.10118,1.92406-2.11242,2.73407-5.79965-.344-5.757-4.57927.06337-9.81855-1.30917-14.02347,2.14293Q36.65449,576.23974,31.44152,575.93254ZM957.11715,590.099c.92572,1.1018,1.65674.66913,2.3205-.29432q.63964-.06924,1.27923-.13835c.69115,2.27915.98562,5.54724,4.01823,1.4214a5.12282,5.12282,0,0,1,2.33444-1.46954c5.11358-1.88054,5.787-5.221,1.65985-8.8302a12.79628,12.79628,0,0,0-6.29624-2.71748q-.35918-.62265-.7182-1.24546c-1.60046-1.07765.72294-4.54725-2.16991-4.34674-2.18087.15123-3.93645,2.11716-4.59695,4.4385-.34515,1.21317.12893,2.68342-1.24772,3.53254-1.23222-1.00906-2.50274-2.05386-4.02814-.57958-.28936.27966-.36293,1.35159-.17,1.47209,1.65574,1.0344,2.80562-.60464,4.225-.93592q1.041,1.137,2.082,2.27391C954.56068,585.44986,957.59817,587.46429,957.11715,590.099Zm-335.639,129.32c.32392,1.84358-.75792,3.20763-1.47718,4.74479a1.45914,1.45914,0,0,0,1.55605,2.18767c2.153-.22486,4.05427-7.503,2.60073-9.57878,1.29261-1.57206,3.69927-2.5831,3.31029-5.03181-.261-1.64393-2.19631-1.248-3.40481-1.56824a3.8504,3.8504,0,0,0-4.58555,2.60235C618.8798,715.01182,618.76829,717.83486,621.47812,719.419Zm608.03229-266.03262c1.97917,2.22951,4.40735,3.9539,6.44656.61437,1.59655-2.61453-1.50141-2.66314-2.99063-3.42793-2.79507-1.21451-5.53761-2.58465-8.41495-3.55473-.93953-.31672-3.80243.11428-2.53637,1.4568C1223.953,450.53027,1224.71791,455.43205,1229.51041,453.38641ZM626.07019,698.69911a1.48779,1.48779,0,0,0-2.11411-.89648c-2.68151-1.17911-4.96094.154-5.32649,2.3925-.3768,2.30853.57724,5.08116,4.19807,4.74946.72578-.06648,1.4888.43528,2.23992.45327,2.066.04941,4.651.42013,4.94352-2.43831C630.26075,700.51982,629.317,698.32521,626.07019,698.69911ZM157.96591,554.94237a9.52069,9.52069,0,0,0-2.031-1.938c-1.65821-.83353-3.44594-1.69306-5.3063-.58056a1.5513,1.5513,0,0,0-.20867,1.50012c1.32856,1.59054,3.16511.58645,4.78362.75658.93651.09849,1.87969.1336,2.81987.19725-.1472,1.83034,4.595.50637,2.36782,3.65382-.67381.9522-2.75007,1.65136-.959,3.0581,1.36787,1.07426,3.651,1.46656,4.72265.02414,1.54246-2.0763,3.95248-2.66685,6.03642-4.08577C166.43453,553.67787,162.40168,553.30482,157.96591,554.94237Zm696.8616-23.50207a1.04771,1.04771,0,0,1,.54864.435c1.65886,2.34141,4.4831,4.58424,4.69154,7.04836.28207,3.33457-4.151,3.10624-6.34007,4.715-2.20353,1.61957-2.81525,3.79156-.83261,5.268,5.08031,3.78314,5.52911,10.27812,9.503,14.82742,4.27545,4.89418,6.27132,6.08037,11.7137,2.61928.818-.52018,1.83148-.97819,1.608-2.11447-.23959-1.21862-1.35654-1.00042-2.3149-1.11285-4.76227-.55833-9.4638-6.24774-7.28009-10.20919,2.76194-5.01064,2.042-10.38091,3.67357-15.37573,1.13493-3.47462,1.95608-6.66947-3.60419-6.499-1.83735.05633-2.559-1.4969-3.08854-2.99724a6.546,6.546,0,0,0-4.31092-4.33074c-2.5506-1.89417-3.52028-6.1408-7.90186-5.31056A9.18671,9.18671,0,0,0,854.82751,531.4403Zm119.51031,60.713c-2.10831-.04375-4.07544.44789-4.09321,2.93717-.01876,2.62983,2.2875,2.63542,4.17654,2.92223q2.84034.4314,5.67957.87128c3.44431-.54248,4.84036-3.05421,4.14807-5.95534-.54446-2.28127-2.38584-4.25994-1.6168-6.93472.32426-1.12779-1.05834-2.79189-1.75077-1.57192C979.14873,587.47462,975.03605,588.3808,974.33782,592.15328Zm-48.50675,6.01049c1.42805-.24716,3.74458,1.43683,3.90374-1.57992.09048-1.71564,1.7919-3.68879-.57412-5.17886-1.11972-.70525-3.42152-.96034-1.3865-3.06709l-.30961-.09452.27053.291c-2.81865,1.14428-4.98338.79261-6.13885-2.4296-.85258-2.37763-3.51221-.87149-3.50528-.47132.045,2.5918-3.558.68082-3.40325,2.99912,2.80584,2.79139,7.06557,2.64476,10.09053,4.9933q.03493.90494.06995,1.81.10271,1.19986.20554,2.39972c-1.0504.05055-2.35215-.45957-2.74283,1.10555a1.099,1.099,0,0,0,.553.87631C924.54448,600.5688,925.19783,599.36144,925.83107,598.16377ZM814.98664,540.22693c-.30161.864-.20348,2.60716.11937,2.35625,2.7545-2.14038,7.46233,2.78749,9.14328-2.56823,1.99156-1.51662,3.26633-3.3133,2.03992-5.90613-1.29389-2.73546-3.78431-2.96114-6.35473-2.77879-3.59894.25531-7.1295,1.61748-10.81.56506-1.01387-.28993-2.299-1.13617-2.91515.519-.42056,1.13-.27712,2.77815.70326,3.12047,2.97392,1.0384,1.59,3.9293,2.63379,5.78311C811.48129,540.96754,812.9286,538.90971,814.98664,540.22693Zm362.23556-170.1506,1.36659,1.257c-.54276,2.29554,1.20432,2.90552,2.70134,3.77361,1.85158,1.07366,3.82565,1.53149,5.1618-.38378,2.28049-3.26887-1.563-1.13-2.157-2.1454-.88883-1.51956.16143-1.97711.84253-2.82906,3.162-3.95546,1.72527-5.97268-2.787-7.11912a15.23428,15.23428,0,0,0-5.67653-.40591c-2.68016.32721-4.73246.70008-4.17915,4.78886C1173.01394,370.84909,1174.65942,370.59013,1177.2222,370.07633ZM946.739,532.86117l.09318.11091c-1.13536-.86335.69675-3.7237-1.86872-3.331-2.51668.38522-.11576,2.02058-.35776,3.01969-.15307.63186-1.249,1.17405-1.20283,1.69245.27251,3.06316-.42728,6.40241,2.15043,8.91364l-.06251-.1508c1.07829,1.07468,1.07,4.25523,3.85481,2.03372,1.9398-1.54736,3.98786-.707,5.28557.481,5.40231,4.94583,10.64822,3.78314,16.30329-.01352-2.18441-3.44566-7.77761-1.55135-9.22591-5.83384,2.12077-.42548,4.02283,1.7772,6.412.7896a2.14014,2.14014,0,0,1,.169-3.1632c.34373-.31064.71884-1.00116.59621-1.34709-.916-2.583-3.34987-3.56709-5.57315-4.17459-2.65949-.7267-2.0831,1.9239-2.54777,3.37815-1.1949-.29311-3.17357,2.52886-3.51682-.66889-.14011-1.306-.09551-2.01223-1.53821-2.12958-1.74666-.14206-2.33947.99733-2.77419,2.34726-.49412,1.53425,1.05536,4.1223-2.17075,4.27562C949.42911,536.96935,952.44317,532.092,946.739,532.86117Zm332.16647-286.86411c1.49361,4.99634,6.08915,4.87407,9.92089,6.0121q.675.2758,1.35017.55161c1.42932,1.55907,2.80243,3.17481,4.30143,4.66379,2.21564,2.20077,5.69295,5.28372,7.79587,3.22278,2.85469-2.79748,7.62312-7.51154,5.34589-11.12263-3.2356-5.13068-.2546-8.23781.86122-12.178,2.37664-2.9994-.422-3.97833-2.19582-4.28109-3.42492-.58455-5.76644-1.275-6.98053-5.31813-.93316-3.10729-4.45946-4.20452-7.60117-1.89654-2.79876,2.05613-5.94061,3.75573-6.68671,7.86409-.66114,3.63962-2.212,7.03365-5.89912,8.94044C1277.424,243.33134,1278.38844,244.772,1278.90543,245.99706ZM56.75367,545.36112c4.33619,3.59813,1.82728,6.36-.96394,9.40921-.91042.99454-3.69961,2.91713-.69243,4.5641a51.42207,51.42207,0,0,0,9.08848,3.64815c3.22676,1.03022,4.99914.09565,3.86561-3.70083-1.10138-3.68886.5143-5.21568,3.9464-6.91653,5.48815-2.71967,13.10133-1.292,16.54187-8.17168.2106-.42116,1.41219-.36537,2.15889-.4961,2.23747-.39156,5.46985-.82465,4.7158-3.51735-.7659-2.73493-2.79259-6.018-7.15489-3.71074a9.73719,9.73719,0,0,1-7.35105.9105,7.36739,7.36739,0,0,0-9.24019,3.95936c-2.58815,5.17044-6.24005,4.57688-10.49915,3.58029C59.8933,544.62093,58.52815,544.16041,56.75367,545.36112Zm1260.905-125.06243c2.54954-.3254,6.0437.8797,7.67027-1.22394,4.24678-5.49251,10.33564-6.85567,16.29693-8.91739,3.5903-1.24177,4.38186-3.52266,1.02817-6.34212-2.6522-2.22948-11.98162-1.89923-13.59135,1.87962-2.61693,6.14317-7.99539,5.7155-12.47793,7.70642-2.47519,1.09935-6.7786,1.42936-6.16136,4.81484C1310.97507,421.24179,1315.0447,419.70577,1317.65866,420.29869Zm-130.07548-81.96985c-1.62049-2.74279-2.93738-5.7531-5.006-8.10117-.86872-.98629-3.72638-2.425-4.25583,1.54162-.38587,2.88984-1.50778,6.73807-5.04661,6.5222-4.55228-.27772-2.76088,2.20863-2.76612,4.22111-.00609,2.35-2.754,3.85312-2.08444,6.359.10422.39015,1.37374.38473,2.01506.7289,5.11181,2.74285,7.38211-2.52685,11.01986-3.90994,1.96727-.74787,3.97659-1.59666,4.99258-3.69994A6.75194,6.75194,0,0,0,1187.58318,338.32884ZM992.86326,408.6761c1.99588.11781,2.56908.17474,3.143.18154,2.43208.02885,4.912-.35422,5.4569-3.10458.62992-3.17963-2.05273-3.66794-4.33109-4.12638a5.421,5.421,0,0,1-4.00627-2.92414c-1.53205-2.92482-3.96987-4.31694-7.11994-3.18848-3.10234,1.11136-3.95677,3.95727-4.04258,6.99239-.10493,3.70844,2.43845,4.91156,5.48331,5.44791C989.705,408.35215,991.9961,408.56385,992.86326,408.6761Zm184.7339-90.73771c-6.11514-2.11185-6.59941,3.50524-9.65787,5.48281-1.34457.86936-2.42344,1.34476-1.61935,2.8394.93089,1.7303,2.22258.699,3.39624.00293,4.67887-2.77486,9.54366-5.17327,13.61315-8.99474,1.57475-1.47871,5.09128-2.08526,4.02007-4.58669-1.19767-2.79652-4.35425-3.93875-7.70851-2.663-3.1107,1.18322-6.24654,2.30028-9.42974,3.468C1171.45887,316.98934,1175.39129,314.74818,1177.59716,317.93839ZM324.41805,565.52624a4.942,4.942,0,0,0,2.14516,4.54831c1.658,1.22811,3.34048-.17636,4.74382-.94066,1.06318-.57908,1.59408-2.05747,2.566-2.90042,1.47535-1.27951,4.576.79007,5.07659-1.38869.69045-3.00492-3.09728-1.08608-4.03656-2.63287a5.59221,5.59221,0,0,1-.44937-2.0574c-.25053-1.73723.60906-4.23353-2.37463-4.24358-2.32007-.00779-4.677.45921-5.60993,3.09937C325.7206,561.157,325.09989,563.35237,324.41805,565.52624Zm638.807,58.38855c3.63307-1.27059,8.11731-2.03977,10.26222-6.60111a4.06632,4.06632,0,0,0-.6872-4.80871c-1.5254-1.56279-2.6083.0514-3.92009.76592-2.50161,1.36263-5.19289,2.372-7.75963,3.62188-1.7771.86547-4.54286,1.20425-3.54542,4.18759C958.33025,623.33926,960.39417,624.03686,963.22507,623.91479ZM837.82258,597.0243c2.3971-5.17787-4.81516-5.9-5.49619-10.042-.26841-1.63274-.65477-3.22725-2.86616-2.46769-1.5882.54552-3.61834.80989-3.9395,2.90467-.27258,1.77717.9704,2.76222,2.52844,3.37889a49.27438,49.27438,0,0,0,4.805,1.96614c3.30469.9156,4.66357,2.13833,1.3552,4.86232-2.24956,1.85214-1.58084,4.44147-1.36717,6.82342.02287.25524,1.64407.794,1.98136.52379,1.95892-1.56881,3.64929-3.39,3.1534-6.24938C837.91151,598.34658,837.90506,597.95852,837.82258,597.0243Zm-325.26509-4.23792c3.50567,1.49354,8.21566-2.45693,7.465,3.70833-.05307.43578,2.24891,1.3877,2.99883.55126,2.14927-2.3971,4.96339-3.34343,7.79018-4.425a2.03126,2.03126,0,0,0,1.36217-2.27539c-.1244-.82292-.64146-1.58431-1.45535-1.47648C524.93871,589.63469,518.85381,589.14977,512.55749,592.78638ZM980.80122,299.42621c1.67961-3.25311,3.13647-6.20837,3.4875-9.7162.18026-1.8011,1.5933-3.558-.11583-5.13936-1.56314-1.44621-3.18228-.26869-4.79356.36364-2.10923.82769-1.51656,2.54518-2.08587,4.00916C975.38652,293.847,980.14313,295.7758,980.80122,299.42621ZM85.0832,565.66359c-5.32593-.26394-8.19585,1.6406-10.98566,3.66656-1.11525.80989-2.16749,1.9483-1.49613,3.43342,1.01379,2.24261,2.16827-.15817,3.112-.04319C80.76529,573.33585,81.74279,569.14869,85.0832,565.66359Zm892.65539,8.09282c-.18522-4.30873-4.74415-8.0902-8.68138-7.2585-1.477.31195-3.20239,1.34571-2.14264,2.50274,2.49353,2.72236,4.16436,6.67842,8.62912,7.07583C977.32037,576.23472,978.14045,575.60268,977.73859,573.75641ZM58.56987,603.18008c-1.34881-1.5276-1.57545-4.48445-4.52856-4.2809-2.0155.13891-5.05155.38827-4.93226,2.831.15516,3.177,3.63414,3.40276,6.10414,3.95132A2.69327,2.69327,0,0,0,58.56987,603.18008ZM1090.59794,274.38214c-2.81065.32579-5.25378,1.29618-4.85906,4.912.23952,2.19493.08652,5.53875,3.13945,5.26811,4.219-.374,1.94978-5.99328,5.1276-7.98781C1094.67847,276.15237,1092.383,274.49768,1090.59794,274.38214ZM827.23461,561.01588c-4.67123-3.7928-7.36265-3.09039-12.36323,2.75089-.9282,1.08431-2.78948,2.16325-.91709,3.68093,1.473,1.194,3.64023,1.13466,4.47716-.687C820.1369,563.04857,823.50114,561.99264,827.23461,561.01588Zm-329.33309,2.06356c5.83,4.57649,13.07393,2.598,19.01833-5.52211C510.08934,559.5406,504.14356,561.267,497.90152,563.07944ZM477.75671,509.155c-.3923-1.38373-1.24-4.08184-4.868-4.27417a3.35853,3.35853,0,0,0-3.69276,3.508,8.34539,8.34539,0,0,0,5.08024,6.85207C476.0895,515.86806,477.831,513.13317,477.75671,509.155ZM151.27757,569.02444c-.11307-3.42081-2.48983-3.90453-4.18613-4.94905-2.79927-1.72357-4.1461,1.10138-5.75087,2.323-1.83062,1.39351-.45677,3.76625.59972,4.47553,2.93939,1.97315,4.63648-5.92284,8.41685-1.42253C150.44387,569.55459,151.29416,569.01644,151.27757,569.02444ZM117.47343,532.4718c-2.20646.10985-3.26223,1.45212-2.86975,3.406.40876,2.03492-.37428,5.25111,2.72259,5.47467,1.92207.13877,3.20773-1.90422,3.17021-4.08857C120.45926,535.09642,120.20239,532.97739,117.47343,532.4718ZM703.61014,736.09318c2.69135-.52095,3.61509-2.79436,4.11148-4.50286.63373-2.18123-2.883-2.99926-3.30513-2.72873-1.89038,1.21147-5.3308-.67636-5.92623,2.54812C697.711,735.62986,702.78468,733.524,703.61014,736.09318ZM834.334,574.17633c-3.20217.216-1.77235-3.796-3.69119-3.81192-1.13317-.00934-4.766.04022-4.28841,3.28325.33815,2.29529,1.12729,4.62272,4.1262,4.6635C832.67041,578.34083,833.08452,576.42269,834.334,574.17633ZM484.33174,684.43842a39.55731,39.55731,0,0,1-2.594-4.72015c-.80015-2.11234-2.47172-1.33374-3.83259-1.32532a2.07471,2.07471,0,0,0-1.59241,1.20935c-.249,1.73087,1.26259,2.12169,2.48358,2.55378C480.51387,682.76384,481.56243,684.7898,484.33174,684.43842Zm41.02866,17.66182c-2.291.7124-2.10034,3.75074-3.41288,5.554-.495.68011,1.04434,2,2.27568,1.92259,3.00283-.18882,4.10357-2.8059,4.83714-4.96795C529.74523,702.59039,527.43709,702.5836,525.3604,702.10024Zm-51.851-160.20716c-2.84981-3.12168-5.39017-3.83128-8.30688-1.28528-.71265.62206-1.78532,1.19023-.80115,2.19787C467.57362,546.05369,470.18039,542.992,473.50938,541.89308ZM156.68293,656.01467a8.6003,8.6003,0,0,0-1.94485-.07038c-2.58332.45291-3.19513,2.284-3.124,4.60141.02351.76628-.10709,1.6915.76923,1.88033,2.789.601,1.45986-2.57042,2.93372-3.35468A2.32047,2.32047,0,0,0,156.68293,656.01467ZM129.28724,525.95883c2.1045,2.6282,4.55884,2.50989,7.11826,1.33906a1.17871,1.17871,0,0,0,.30942-1.94469C134.256,523.61257,131.81845,523.84472,129.28724,525.95883Zm190.46514,67.25526c4.4652,2.49,9.205,3.336,12.91283,2.526C327.6038,593.647,322.253,592.436,319.75238,593.21409Zm-15.2199,13.35373c.00135,2.98666,1.16666,4.206,2.72211,4.26228,2.54929.09211,3.41023-2.15694,3.94559-4.13229.29188-1.077-.78369-2.72993-1.89385-1.77561C307.82365,606.1969,304.65022,604.44352,304.53248,606.56782Zm658.30162-117.716c-2.66133-1.3546-4.97786-1.38377-7.094.871-.52867.56336-1.07971,1.55446-.37921,1.954,2.61092,1.489,4.585-.48736,6.68048-1.58813C962.31726,489.94379,962.43422,489.49654,962.8341,488.85183Zm-40.998,116.95425c2.795,2.46188,2.98645,6.229,6.599,4.23806,1.47648-.81357,2.398-2.08253,1.28964-3.75477C927.59648,603.07784,925.38325,606.2689,921.83606,605.80608ZM316.669,590.29773c1.35258-.36179,3.27758-.92437,3.42421-3.28841.08917-1.438-.54354-2.83833-2.301-2.45133-2.30931.5087-3.42389,2.37954-3.6563,4.57543C314.02226,590.20782,315.00576,590.69259,316.669,590.29773Zm-87.8452,90.55194c-2.6242-1.5732-5.55057-1.5305-8.89993-1.33693C222.33474,684.90712,225.70032,681.82927,228.82381,680.84967Zm937.98522-288.983c2.65574,1.75752,4.95605.11523,7.23032-1.0008a1.08977,1.08977,0,0,0,.13714-1.91113c-2.43038-1.88925-3.51788,1.69288-5.59171,1.44915C1167.77631,390.30889,1167.05775,390.54544,1166.809,391.86665ZM681.06236,640.44926c-4.1844,6.471-3.90218,7.57433,1.99708,10.306C682.55314,647.33633,679.93408,644.94213,681.06236,640.44926ZM509.71863,599.10075c2.42432,3.29089,4.87046,2.72583,7.21428,1.327A2.85311,2.85311,0,0,0,517.183,597.9C514.44575,596.20422,512.59318,598.92991,509.71863,599.10075Zm372.89175-5.28825c-.23832-1.55181-1.49206-1.57475-2.61284-1.58948-1.299-.017-2.32488.67077-2.18094,2.04586.14287,1.365.95786,2.73,2.49679,2.55874C881.79546,596.66258,882.19166,595.11714,882.61038,593.8125ZM234.22966,691.04979c3.22915.81974,5.22414,2.93923,7.38388.73308.94824-.96856.20207-2.37629-.68158-3.03169C238.2844,686.78759,236.92025,689.20444,234.22966,691.04979ZM1296.287,133.723a2.50281,2.50281,0,0,0-2.358-2.00515c-1.60265-.117-3.16961.17275-3.50563,2.08234-.21467,1.21874.73576,1.726,1.79409,1.51545C1293.60282,135.04009,1295.38233,135.69757,1296.287,133.723ZM523.71881,568.98925c-2.47948-.51621-4.92787-.91022-7.03246.95326a2.15041,2.15041,0,0,0,.23534,2.01683C520.19991,573.77467,521.11037,569.43189,523.71881,568.98925ZM828.8689,644.00218c-.51075-3.08521,4.677-1.67862,3.11623-5.39764-.28844-.68733-1.94617-1.66028-2.29607-.91368C828.86713,639.4448,826.14491,640.89565,828.8689,644.00218Zm376.65265-316.4814c.35259-1.99807-.66666-2.54692-2.241-2.649-1.664-.108-2.50763.45656-2.356,2.28849.11866,1.43722.39054,2.8806,1.92691,3.13555C1204.95684,330.64522,1205.17109,328.81335,1205.52155,327.52078ZM226.67532,694.52038c-1.337,1.0002-3.50876,1.0475-3.768,3.09576-.24433,1.93031,1.27008,2.18612,2.62137,1.87311,1.51749-.35139,3.75644-.15569,3.74913-2.53941C229.27348,695.54033,228.035,694.79006,226.67532,694.52038ZM798.79981,563.56994c4.26136-.32469,5.14347-2.64129,4.3214-6.44018C799.7501,558.35405,800.74159,561.91632,798.79981,563.56994Zm263.63428-299.765c-3.07353-2.5551-5.38581-2.40989-7.67877-1.12443a1.17548,1.17548,0,0,0-.06775,1.94207C1057.17119,266.52966,1059.16423,264.37066,1062.43409,263.80493ZM798.97915,540.88357c.004-1.15837-.53462-1.86776-1.66106-1.82383-1.29027.05034-2.79458.08751-2.99168,1.81059a1.70505,1.70505,0,0,0,1.65645,1.89672A2.61454,2.61454,0,0,0,798.97915,540.88357Zm172.66661-1.21583c3.06928,2.067,5.22821,1.66913,7.08043-.401.60818-.67983,1.03029-1.92206.092-2.50712-2.36907-1.47719-3.48758,1.49839-5.42178,1.8C972.92343,538.63341,972.51208,539.10208,971.64576,539.66774ZM829.95853,627.66582c.10606-1.0584-.20179-2.11241-1.41085-1.73915-1.95538.60343-2.79953,2.38712-3.25429,4.241-.19158.78121.48428,1.66651,1.22733,1.51067C828.59073,631.24409,829.4666,629.5773,829.95853,627.66582ZM390.50332,611.92043c-.45295-1.29792-1.60339-1.5055-2.71348-1.526a1.59228,1.59228,0,0,0-1.72913,2.21167c.38279,1.35286,1.63387,1.391,2.78081,1.19547A1.741,1.741,0,0,0,390.50332,611.92043Zm514.55374-61.33061c1.389-2.00058.27152-3.334-1.12517-4.42685a1.00767,1.00767,0,0,0-1.68456.785A3.17859,3.17859,0,0,0,905.05706,550.58982Zm-398.886-7.971a4.18555,4.18555,0,0,0-2.6254,2.78343,1.51515,1.51515,0,0,0,1.63277,1.89555,2.6685,2.6685,0,0,0,2.5535-2.63882A1.639,1.639,0,0,0,506.171,542.61886ZM692.092,680.2262c-1.35831-2.92464-2.65581-4.03912-4.87216-3.34251a1.35324,1.35324,0,0,0-1.02278,1.73412C687.3991,681.12721,689.58961,679.793,692.092,680.2262ZM800.4198,531.83172c-.17686-1.21288-.48725-2.387-2.089-2.02508-.93139.21046-2.00487.763-1.86681,1.8603a2.71638,2.71638,0,0,0,2.439,2.11021C800.12669,533.9687,800.3878,532.87324,800.4198,531.83172ZM307.3175,598.46163a2.46252,2.46252,0,0,0-2.63276-2.37522c-.867-.036-1.25342.75962-1.22238,1.55868a2.8698,2.8698,0,0,0,2.42114,2.73616C307.13958,600.64909,307.25013,599.43585,307.3175,598.46163Zm606.60417-19.33838c-.93294.04927-2.19773.01373-2.09556,1.25473.173,2.10207,2.26045,1.56278,3.53819,1.977a1.38511,1.38511,0,0,0,1.78249-1.58226C916.85126,579.0157,915.09739,579.52044,913.92167,579.12325Zm-95.65115-32.46067c.499.83884,1.04679,1.72881,2.15532,1.58307a1.4929,1.4929,0,0,0,.77378-1.24288,1.98514,1.98514,0,0,0-2.15086-1.51481C818.361,545.4745,818.12219,545.99305,818.27052,546.66258Zm-5.98989,7.79615c-.29092.60457-.72854,1.08871-.64542,1.45446a1.52987,1.52987,0,0,0,1.021,1.00722c.89818.06237,1.29254-.61109.95029-1.41064C813.43617,555.1118,812.85157,554.89118,812.28063,554.45873Zm-31.20133-57.7575c.00007-.85283-.367-1.61816-1.245-1.49921a2.4039,2.4039,0,0,0-1.69058,1.18145c-.31209.81559.4156,1.40476,1.24808,1.5025A1.44454,1.44454,0,0,0,781.0793,496.70123Zm-8.09246,50.93783a12.91773,12.91773,0,0,0-1.55422-1.09192,8.87965,8.87965,0,0,0-.92133,1.13936c.26578.19891.55635.58846.79219.55773A8.332,8.332,0,0,0,772.98684,547.63906Zm120.57174-31.74647a3.59321,3.59321,0,0,0-.25636-.45454,8.4776,8.4776,0,0,0-.84119.42573,8.63413,8.63413,0,0,0,.8198.46926A3.70052,3.70052,0,0,0,893.55858,515.89259Zm-73.44072,36.00776q-.34633.30894-.69265.61766c.12525.11916.33333.35889.36286.33864a7.38344,7.38344,0,0,0,.71317-.60662C820.374,552.13413,820.24685,552.0183,820.11786,551.90035Zm139.36581-129.074a2.59381,2.59381,0,0,0-.42707-.24313,7.44981,7.44981,0,0,0-.503.74422c.148.08238.40456.25839.42693.23244A6.28575,6.28575,0,0,0,959.48367,422.82638Zm250.81552-84.55348q-.40165-.27665-.80628-.55536c-.1079.29662-.35811.63788-.28306.87712.07207.22971.4813.35361.74227.524C1210.06555,338.84235,1210.17883,338.56605,1210.29919,338.2729ZM897.24624,535.90928q-.17469.16112-.35032.32314.16409.172.32823.34388c.11-.11431.30353-.22664.30622-.34349C897.53306,536.12119,897.33715,536.0049,897.24624,535.90928Zm190.0048-263.008.38686-.14327-.30253-.24592Zm-87.31811,77.97332.29531-.21144-.31577-.15191Z"/><rect class="810f2c23-0875-4b6b-99e8-54039443411b" x="-9" y="618" width="1387" height="158"/><rect class="e09edecb-6324-40c9-96ca-ea4aba9ab282" x="-9" y="-3" width="1392" height="500" transform="translate(1374 494) rotate(-180)"/></g></svg>